M48
; DRILL file {KiCad 7.0.9} date Tue Jan 16 21:18:45 2024
; FORMAT={-:-/ absolute / inch / decimal}
; #@! TF.CreationDate,2024-01-16T21:18:45+00:00
; #@! TF.GenerationSoftware,Kicad,Pcbnew,7.0.9
; #@! TF.FileFunction,Plated,1,2,PTH
FMAT,2
INCH
; #@! TA.AperFunction,Plated,PTH,ViaDrill
T1C0.0118
; #@! TA.AperFunction,Plated,PTH,ComponentDrill
T2C0.0315
; #@! TA.AperFunction,Plated,PTH,ComponentDrill
T3C0.0394
%
G90
G05
T1
X4.0748Y-3.3661
X4.0748Y-3.7677
X4.1339Y-3.6811
X4.1535Y-3.8583
X4.1929Y-3.2087
X4.2323Y-4.626
X4.2913Y-3.6417
X4.5276Y-3.8583
X4.5866Y-3.1496
X4.6063Y-3.0709
X4.6063Y-3.3858
X4.626Y-3.3071
X4.685Y-3.2283
X4.685Y-3.4843
X4.685Y-3.8386
X4.7244Y-3.3071
X4.7441Y-4.0157
X4.7638Y-3.5827
X4.7835Y-3.3661
X4.7835Y-4.0157
X4.8425Y-3.9961
X4.9016Y-3.5433
X4.9213Y-3.9764
X4.9409Y-3.4449
X4.9606Y-4.626
X4.9803Y-3.9961
X4.9803Y-4.0354
X5.0Y-3.1102
X5.0Y-3.3071
X5.0197Y-3.5236
X5.0591Y-4.0157
X5.0591Y-4.0551
X5.135Y-4.0354
X5.1378Y-4.6063
X5.1969Y-3.189
X5.1969Y-3.622
X5.2165Y-3.3465
X5.3543Y-4.2717
X5.374Y-3.0906
X5.374Y-3.8583
X5.374Y-4.0354
X5.3937Y-3.2087
X5.4331Y-3.0709
X5.6299Y-3.5039
X5.6496Y-4.626
X5.7205Y-3.5748
X5.7283Y-4.0551
X5.8622Y-3.3307
T2
X4.0354Y-3.1496
X4.1142Y-3.1496
X4.1929Y-3.1496
X4.2717Y-3.1496
X4.3307Y-3.2677
X4.3504Y-3.1496
X5.315Y-3.2087
X5.3937Y-3.4449
X5.3937Y-3.6024
T3
X5.5433Y-3.2283
X5.5512Y-3.6717
X5.6496Y-3.8685
X5.748Y-3.6717
X5.8425Y-3.2283
T0
M30
