%TF.GenerationSoftware,KiCad,Pcbnew,7.0.9*%
%TF.CreationDate,2024-01-16T21:18:43+00:00*%
%TF.ProjectId,egg-timer,6567672d-7469-46d6-9572-2e6b69636164,rev?*%
%TF.SameCoordinates,Original*%
%TF.FileFunction,Other,User*%
%FSLAX46Y46*%
G04 Gerber Fmt 4.6, Leading zero omitted, Abs format (unit mm)*
G04 Created by KiCad (PCBNEW 7.0.9) date 2024-01-16 21:18:43*
%MOMM*%
%LPD*%
G01*
G04 APERTURE LIST*
G04 APERTURE END LIST*
G36*
X113443039Y-104019685D02*
G01*
X113488794Y-104072489D01*
X113500000Y-104124000D01*
X113500000Y-116376000D01*
X113480315Y-116443039D01*
X113427511Y-116488794D01*
X113376000Y-116500000D01*
X102124000Y-116500000D01*
X102056961Y-116480315D01*
X102011206Y-116427511D01*
X102000000Y-116376000D01*
X102000000Y-104124000D01*
X102019685Y-104056961D01*
X102072489Y-104011206D01*
X102124000Y-104000000D01*
X113376000Y-104000000D01*
X113443039Y-104019685D01*
G37*
G36*
X131443039Y-104019685D02*
G01*
X131488794Y-104072489D01*
X131500000Y-104124000D01*
X131500000Y-116376000D01*
X131480315Y-116443039D01*
X131427511Y-116488794D01*
X131376000Y-116500000D01*
X120124000Y-116500000D01*
X120056961Y-116480315D01*
X120011206Y-116427511D01*
X120000000Y-116376000D01*
X120000000Y-104124000D01*
X120019685Y-104056961D01*
X120072489Y-104011206D01*
X120124000Y-104000000D01*
X131376000Y-104000000D01*
X131443039Y-104019685D01*
G37*
G36*
X149443039Y-104019685D02*
G01*
X149488794Y-104072489D01*
X149500000Y-104124000D01*
X149500000Y-116376000D01*
X149480315Y-116443039D01*
X149427511Y-116488794D01*
X149376000Y-116500000D01*
X138124000Y-116500000D01*
X138056961Y-116480315D01*
X138011206Y-116427511D01*
X138000000Y-116376000D01*
X138000000Y-104124000D01*
X138019685Y-104056961D01*
X138072489Y-104011206D01*
X138124000Y-104000000D01*
X149376000Y-104000000D01*
X149443039Y-104019685D01*
G37*
M02*
