%TF.GenerationSoftware,KiCad,Pcbnew,7.0.9*%
%TF.CreationDate,2024-01-16T21:18:43+00:00*%
%TF.ProjectId,egg-timer,6567672d-7469-46d6-9572-2e6b69636164,rev?*%
%TF.SameCoordinates,Original*%
%TF.FileFunction,Copper,L1,Top*%
%TF.FilePolarity,Positive*%
%FSLAX46Y46*%
G04 Gerber Fmt 4.6, Leading zero omitted, Abs format (unit mm)*
G04 Created by KiCad (PCBNEW 7.0.9) date 2024-01-16 21:18:43*
%MOMM*%
%LPD*%
G01*
G04 APERTURE LIST*
G04 Aperture macros list*
%AMRoundRect*
0 Rectangle with rounded corners*
0 $1 Rounding radius*
0 $2 $3 $4 $5 $6 $7 $8 $9 X,Y pos of 4 corners*
0 Add a 4 corners polygon primitive as box body*
4,1,4,$2,$3,$4,$5,$6,$7,$8,$9,$2,$3,0*
0 Add four circle primitives for the rounded corners*
1,1,$1+$1,$2,$3*
1,1,$1+$1,$4,$5*
1,1,$1+$1,$6,$7*
1,1,$1+$1,$8,$9*
0 Add four rect primitives between the rounded corners*
20,1,$1+$1,$2,$3,$4,$5,0*
20,1,$1+$1,$4,$5,$6,$7,0*
20,1,$1+$1,$6,$7,$8,$9,0*
20,1,$1+$1,$8,$9,$2,$3,0*%
G04 Aperture macros list end*
%TA.AperFunction,EtchedComponent*%
%ADD10C,0.500000*%
%TD*%
%TA.AperFunction,SMDPad,CuDef*%
%ADD11RoundRect,0.381000X0.381000X-0.762000X0.381000X0.762000X-0.381000X0.762000X-0.381000X-0.762000X0*%
%TD*%
%TA.AperFunction,SMDPad,CuDef*%
%ADD12RoundRect,0.250000X0.350000X0.450000X-0.350000X0.450000X-0.350000X-0.450000X0.350000X-0.450000X0*%
%TD*%
%TA.AperFunction,ComponentPad*%
%ADD13R,1.350000X1.350000*%
%TD*%
%TA.AperFunction,ComponentPad*%
%ADD14R,1.560000X1.560000*%
%TD*%
%TA.AperFunction,ComponentPad*%
%ADD15C,1.560000*%
%TD*%
%TA.AperFunction,SMDPad,CuDef*%
%ADD16R,1.000000X4.000000*%
%TD*%
%TA.AperFunction,ComponentPad*%
%ADD17O,1.350000X1.350000*%
%TD*%
%TA.AperFunction,ComponentPad*%
%ADD18R,2.000000X2.000000*%
%TD*%
%TA.AperFunction,ComponentPad*%
%ADD19C,2.000000*%
%TD*%
%TA.AperFunction,ViaPad*%
%ADD20C,0.600000*%
%TD*%
%TA.AperFunction,Conductor*%
%ADD21C,0.127000*%
%TD*%
%TA.AperFunction,Conductor*%
%ADD22C,0.400000*%
%TD*%
G04 APERTURE END LIST*
D10*
%TO.C,SW2*%
X121200000Y-115000000D02*
X130800000Y-115000000D01*
X126400000Y-115000000D02*
X126400000Y-107600000D01*
X128600000Y-115000000D02*
X128600000Y-106400000D01*
X130800000Y-115000000D02*
X130800000Y-106400000D01*
X124200000Y-114900000D02*
X124200000Y-106300000D01*
X122000000Y-114800000D02*
X122000000Y-106200000D01*
X127450000Y-114200000D02*
X127450000Y-105600000D01*
X129600000Y-114200000D02*
X129600000Y-105600000D01*
X123150000Y-114100000D02*
X123150000Y-105500000D01*
X121000000Y-114000000D02*
X121000000Y-105400000D01*
X125300000Y-112800000D02*
X125300000Y-105400000D01*
X121000000Y-105400000D02*
X130400000Y-105400000D01*
%TO.C,SW1*%
X103000000Y-115000000D02*
X112600000Y-115000000D01*
X108200000Y-115000000D02*
X108200000Y-107600000D01*
X110400000Y-115000000D02*
X110400000Y-106400000D01*
X112600000Y-115000000D02*
X112600000Y-106400000D01*
X106000000Y-114900000D02*
X106000000Y-106300000D01*
X103800000Y-114800000D02*
X103800000Y-106200000D01*
X109250000Y-114200000D02*
X109250000Y-105600000D01*
X111400000Y-114200000D02*
X111400000Y-105600000D01*
X104950000Y-114100000D02*
X104950000Y-105500000D01*
X102800000Y-114000000D02*
X102800000Y-105400000D01*
X107100000Y-112800000D02*
X107100000Y-105400000D01*
X102800000Y-105400000D02*
X112200000Y-105400000D01*
%TO.C,SW3*%
X138700000Y-115000000D02*
X148300000Y-115000000D01*
X143900000Y-115000000D02*
X143900000Y-107600000D01*
X146100000Y-115000000D02*
X146100000Y-106400000D01*
X148300000Y-115000000D02*
X148300000Y-106400000D01*
X141700000Y-114900000D02*
X141700000Y-106300000D01*
X139500000Y-114800000D02*
X139500000Y-106200000D01*
X144950000Y-114200000D02*
X144950000Y-105600000D01*
X147100000Y-114200000D02*
X147100000Y-105600000D01*
X140650000Y-114100000D02*
X140650000Y-105500000D01*
X138500000Y-114000000D02*
X138500000Y-105400000D01*
X142800000Y-112800000D02*
X142800000Y-105400000D01*
X138500000Y-105400000D02*
X147900000Y-105400000D01*
%TD*%
D11*
%TO.P,SW2,1,1*%
%TO.N,GND*%
X126000000Y-115000000D03*
%TO.P,SW2,2,2*%
%TO.N,IO16*%
X125700000Y-105400000D03*
%TD*%
D12*
%TO.P,R5,1*%
%TO.N,IO16*%
X125400000Y-84100000D03*
%TO.P,R5,2*%
%TO.N,IO13*%
X123400000Y-84100000D03*
%TD*%
D13*
%TO.P,J5,1,Pin_1*%
%TO.N,ADC*%
X135000000Y-81500000D03*
%TD*%
D11*
%TO.P,SW1,1,1*%
%TO.N,GND*%
X107800000Y-115000000D03*
%TO.P,SW1,2,2*%
%TO.N,IO0*%
X107500000Y-105400000D03*
%TD*%
D14*
%TO.P,RV1,1,1*%
%TO.N,GND*%
X141000000Y-93260000D03*
D15*
%TO.P,RV1,2,2*%
%TO.N,Net-(U2-VLCD)*%
X143500000Y-98260000D03*
%TO.P,RV1,3,3*%
%TO.N,+3.3V*%
X146000000Y-93260000D03*
%TD*%
D16*
%TO.P,U3,1,1*%
%TO.N,COM3*%
X117500000Y-97500000D03*
%TO.P,U3,2,2*%
%TO.N,COM2*%
X119000000Y-97500000D03*
%TO.P,U3,3,3*%
%TO.N,SEG1*%
X120500000Y-97500000D03*
%TO.P,U3,4,4*%
%TO.N,SEG2*%
X122000000Y-97500000D03*
%TO.P,U3,5,5*%
%TO.N,SEG3*%
X123500000Y-97500000D03*
%TO.P,U3,6,6*%
%TO.N,SEG4*%
X125000000Y-97500000D03*
%TO.P,U3,7,7*%
%TO.N,SEG5*%
X126500000Y-97500000D03*
%TO.P,U3,8,8*%
%TO.N,SEG6*%
X128000000Y-97500000D03*
%TO.P,U3,9,9*%
%TO.N,SEG7*%
X129500000Y-97500000D03*
%TO.P,U3,10,10*%
%TO.N,SEG8*%
X131000000Y-97500000D03*
%TO.P,U3,11,11*%
%TO.N,COM0*%
X132500000Y-97500000D03*
%TO.P,U3,12,12*%
%TO.N,COM1*%
X134000000Y-97500000D03*
%TD*%
D11*
%TO.P,SW3,1,1*%
%TO.N,GND*%
X143500000Y-115000000D03*
%TO.P,SW3,2,2*%
%TO.N,RST*%
X143200000Y-105400000D03*
%TD*%
D13*
%TO.P,J4,1,Pin_1*%
%TO.N,IO4*%
X110000000Y-83000000D03*
%TD*%
%TO.P,J2,1,Pin_1*%
%TO.N,IO14*%
X137000000Y-87500000D03*
%TD*%
%TO.P,J3,1,Pin_1*%
%TO.N,IO10*%
X137000000Y-91500000D03*
%TD*%
%TO.P,J1,1,Pin_1*%
%TO.N,5V*%
X102500000Y-80000000D03*
D17*
%TO.P,J1,2,Pin_2*%
%TO.N,GND*%
X104500000Y-80000000D03*
%TO.P,J1,3,Pin_3*%
%TO.N,PB2*%
X106500000Y-80000000D03*
%TO.P,J1,4,Pin_4*%
%TO.N,IO13*%
X108500000Y-80000000D03*
%TO.P,J1,5,Pin_5*%
%TO.N,IO0*%
X110500000Y-80000000D03*
%TD*%
D18*
%TO.P,BZ1,1,-*%
%TO.N,IO5*%
X140800000Y-82000000D03*
D19*
%TO.P,BZ1,2,+*%
%TO.N,GND*%
X148400000Y-82000000D03*
%TD*%
D20*
%TO.N,IO5*%
X119000000Y-82000000D03*
%TO.N,5V*%
X103500000Y-85500000D03*
%TO.N,ADC*%
X132000000Y-81000000D03*
%TO.N,IO0*%
X117000000Y-86000000D03*
%TO.N,IO14*%
X125500000Y-87500000D03*
%TO.N,IO12*%
X124500000Y-90000000D03*
X120000000Y-84000000D03*
%TO.N,IO13*%
X143000000Y-89000000D03*
X130430000Y-102500000D03*
X117000000Y-78000000D03*
X127500000Y-89500000D03*
X132500000Y-85000000D03*
X121500000Y-85500000D03*
X136000000Y-108500000D03*
%TO.N,IO10*%
X121000000Y-91000000D03*
%TO.N,RST*%
X145500000Y-103000000D03*
%TO.N,GND*%
X107500000Y-117500000D03*
X138000000Y-78000000D03*
X105500000Y-98000000D03*
X148900000Y-84600000D03*
X143500000Y-117500000D03*
X126000000Y-117500000D03*
X127000000Y-79000000D03*
X145300000Y-90800000D03*
X105000000Y-93500000D03*
%TO.N,SEG1*%
X120500000Y-102000000D03*
%TO.N,SEG2*%
X121500000Y-102000000D03*
%TO.N,SEG3*%
X123000000Y-101500000D03*
%TO.N,SEG4*%
X125000000Y-101000000D03*
%TO.N,SEG5*%
X126500000Y-101500000D03*
%TO.N,SEG6*%
X126500000Y-102500000D03*
%TO.N,SEG8*%
X128500000Y-103000000D03*
%TO.N,COM0*%
X136500000Y-102500000D03*
%TO.N,COM1*%
X136500000Y-98000000D03*
%TO.N,COM2*%
X119000000Y-97500000D03*
%TO.N,COM3*%
X115000000Y-98000000D03*
%TO.N,SEG7*%
X128500000Y-102000000D03*
%TO.N,+3.3V*%
X132000000Y-92000000D03*
X137000000Y-81500000D03*
X103500000Y-95700000D03*
X130500000Y-117000000D03*
X119000000Y-88500000D03*
X136500000Y-78500000D03*
X109000000Y-92500000D03*
%TO.N,PB2*%
X117500000Y-84000000D03*
X106500000Y-81500000D03*
X116500000Y-80000000D03*
%TO.N,IO16*%
X127000000Y-84000000D03*
%TD*%
D21*
%TO.N,IO5*%
X138000000Y-83500000D02*
X139500000Y-82000000D01*
X131500000Y-82000000D02*
X133000000Y-83500000D01*
X139500000Y-82000000D02*
X140900000Y-82000000D01*
X119000000Y-82000000D02*
X131500000Y-82000000D01*
X133000000Y-83500000D02*
X138000000Y-83500000D01*
D22*
%TO.N,5V*%
X102500000Y-80500000D02*
X102500000Y-84500000D01*
X102500000Y-84500000D02*
X103500000Y-85500000D01*
X103000000Y-80000000D02*
X102500000Y-80500000D01*
D21*
%TO.N,ADC*%
X132000000Y-81000000D02*
X132500000Y-81500000D01*
X132500000Y-81500000D02*
X135000000Y-81500000D01*
%TO.N,IO0*%
X112000000Y-86000000D02*
X111000000Y-87000000D01*
X110500000Y-101500000D02*
X109000000Y-103000000D01*
X117000000Y-86000000D02*
X112000000Y-86000000D01*
X107500000Y-103500000D02*
X107500000Y-104959500D01*
X111000000Y-92000000D02*
X110500000Y-92500000D01*
X111000000Y-87000000D02*
X111000000Y-92000000D01*
X109000000Y-103000000D02*
X108000000Y-103000000D01*
X108000000Y-104900000D02*
X107940500Y-104959500D01*
X110500000Y-92500000D02*
X110500000Y-101500000D01*
X108000000Y-103000000D02*
X107500000Y-103500000D01*
%TO.N,IO14*%
X125500000Y-87500000D02*
X137000000Y-87500000D01*
%TO.N,IO12*%
X120500000Y-87000000D02*
X120500000Y-84500000D01*
X122500000Y-89000000D02*
X120500000Y-87000000D01*
X123500000Y-89000000D02*
X122500000Y-89000000D01*
X124500000Y-90000000D02*
X123500000Y-89000000D01*
X120500000Y-84500000D02*
X120000000Y-84000000D01*
%TO.N,IO13*%
X139000000Y-85000000D02*
X143000000Y-89000000D01*
X117500000Y-80500000D02*
X116509500Y-81490500D01*
X121500000Y-85500000D02*
X121500000Y-87000000D01*
X121500000Y-83806328D02*
X121500000Y-85500000D01*
X132000000Y-104000000D02*
X130400000Y-104000000D01*
X132500000Y-104500000D02*
X132000000Y-104000000D01*
X123500000Y-84000000D02*
X123000000Y-84000000D01*
X132500000Y-85000000D02*
X139000000Y-85000000D01*
X136000000Y-108500000D02*
X132500000Y-105000000D01*
X123000000Y-84000000D02*
X121500000Y-85500000D01*
X130400000Y-104000000D02*
X130430000Y-103970000D01*
X124859210Y-89000000D02*
X127000000Y-89000000D01*
X121500000Y-87000000D02*
X122859210Y-87000000D01*
X117500000Y-78500000D02*
X117500000Y-80500000D01*
X117000000Y-78000000D02*
X117500000Y-78500000D01*
X122859210Y-87000000D02*
X124859210Y-89000000D01*
X117315828Y-83009500D02*
X120703172Y-83009500D01*
X127000000Y-89000000D02*
X127500000Y-89500000D01*
X120703172Y-83009500D02*
X121500000Y-83806328D01*
X130430000Y-103970000D02*
X130430000Y-102500000D01*
X116509500Y-82203172D02*
X117315828Y-83009500D01*
X116509500Y-81490500D02*
X116509500Y-82203172D01*
X132500000Y-105000000D02*
X132500000Y-104500000D01*
%TO.N,IO10*%
X126500000Y-91000000D02*
X127000000Y-90500000D01*
X136000000Y-91500000D02*
X137000000Y-91500000D01*
X127000000Y-90500000D02*
X135000000Y-90500000D01*
X135000000Y-90500000D02*
X136000000Y-91500000D01*
X121000000Y-91000000D02*
X126500000Y-91000000D01*
%TO.N,RST*%
X143200000Y-103800000D02*
X143200000Y-104959500D01*
X144000000Y-103000000D02*
X143200000Y-103800000D01*
X145500000Y-103000000D02*
X144000000Y-103000000D01*
%TO.N,GND*%
X145300000Y-88200000D02*
X145300000Y-90800000D01*
X128000000Y-78000000D02*
X138000000Y-78000000D01*
D22*
X105000000Y-93500000D02*
X106000000Y-94500000D01*
X106000000Y-97500000D02*
X105500000Y-98000000D01*
D21*
X126000000Y-117500000D02*
X126000000Y-115440500D01*
X148900000Y-84600000D02*
X145300000Y-88200000D01*
X143500000Y-117500000D02*
X143500000Y-115440500D01*
X107500000Y-115440500D02*
X107800000Y-115440500D01*
D22*
X106000000Y-94500000D02*
X106000000Y-97500000D01*
D21*
X107500000Y-117000000D02*
X107500000Y-116040500D01*
X127000000Y-79000000D02*
X128000000Y-78000000D01*
X107500000Y-117500000D02*
X107500000Y-115440500D01*
%TO.N,SEG1*%
X121000000Y-100500000D02*
X120500000Y-100000000D01*
X121000000Y-101500000D02*
X121000000Y-100500000D01*
X120500000Y-100000000D02*
X120500000Y-97500000D01*
X120500000Y-102000000D02*
X121000000Y-101500000D01*
%TO.N,SEG2*%
X121500000Y-102000000D02*
X122000000Y-101500000D01*
X122000000Y-101500000D02*
X122000000Y-97500000D01*
%TO.N,SEG3*%
X123500000Y-100500000D02*
X123500000Y-97500000D01*
X123000000Y-101500000D02*
X123000000Y-101000000D01*
X123000000Y-101000000D02*
X123500000Y-100500000D01*
%TO.N,SEG4*%
X125000000Y-101000000D02*
X125000000Y-97500000D01*
%TO.N,SEG5*%
X126500000Y-101500000D02*
X126500000Y-97500000D01*
%TO.N,SEG6*%
X127000000Y-102500000D02*
X128000000Y-101500000D01*
X126500000Y-102500000D02*
X127000000Y-102500000D01*
X128000000Y-101500000D02*
X128000000Y-97500000D01*
%TO.N,SEG8*%
X131000000Y-100500000D02*
X131000000Y-97500000D01*
X128500000Y-103000000D02*
X131000000Y-100500000D01*
%TO.N,COM0*%
X131431865Y-100342862D02*
X131431865Y-101657138D01*
X132500000Y-97500000D02*
X132500000Y-99274727D01*
X136500000Y-102500000D02*
X136428010Y-102571990D01*
X132500000Y-99274727D02*
X131431865Y-100342862D01*
X132346717Y-102571990D02*
X132500000Y-102571990D01*
X136428010Y-102571990D02*
X132500000Y-102571990D01*
X131431865Y-101657138D02*
X132346717Y-102571990D01*
%TO.N,COM1*%
X136500000Y-98000000D02*
X136000000Y-97500000D01*
X136000000Y-97500000D02*
X134000000Y-97500000D01*
%TO.N,COM3*%
X115500000Y-97500000D02*
X117500000Y-97500000D01*
X115000000Y-98000000D02*
X115500000Y-97500000D01*
%TO.N,SEG7*%
X128500000Y-102000000D02*
X129500000Y-101000000D01*
X129500000Y-101000000D02*
X129500000Y-97500000D01*
%TO.N,+3.3V*%
X137000000Y-79000000D02*
X136500000Y-78500000D01*
X137000000Y-81500000D02*
X137000000Y-79000000D01*
X119000000Y-89500000D02*
X114500000Y-94000000D01*
X119000000Y-88500000D02*
X119000000Y-89000000D01*
%TO.N,PB2*%
X106500000Y-81500000D02*
X115000000Y-81500000D01*
X115000000Y-81500000D02*
X115000000Y-83000000D01*
X117000000Y-83500000D02*
X117500000Y-84000000D01*
X115500000Y-83500000D02*
X117000000Y-83500000D01*
X115000000Y-83000000D02*
X115500000Y-83500000D01*
X115000000Y-81500000D02*
X116500000Y-80000000D01*
%TO.N,IO16*%
X125500000Y-84000000D02*
X127000000Y-84000000D01*
X125809500Y-103809500D02*
X125809500Y-93690500D01*
X137865500Y-90634500D02*
X135221500Y-87990500D01*
X125809500Y-93690500D02*
X126800000Y-92700000D01*
X137531000Y-92700000D02*
X137865500Y-92365500D01*
X126000000Y-106000000D02*
X126000000Y-106059500D01*
X125296828Y-87990500D02*
X125009500Y-87703172D01*
X126800000Y-92700000D02*
X137531000Y-92700000D01*
X125009500Y-84490500D02*
X125400000Y-84100000D01*
X137865500Y-92365500D02*
X137865500Y-90634500D01*
X125700000Y-104300000D02*
X125700000Y-104959500D01*
X135221500Y-87990500D02*
X125296828Y-87990500D01*
X125009500Y-87703172D02*
X125009500Y-84490500D01*
X126000000Y-104000000D02*
X125700000Y-104300000D01*
X126000000Y-104000000D02*
X125809500Y-103809500D01*
%TD*%
%TA.AperFunction,Conductor*%
%TO.N,+3.3V*%
G36*
X116218967Y-77520185D02*
G01*
X116264722Y-77572989D01*
X116274666Y-77642147D01*
X116268970Y-77665454D01*
X116214632Y-77820742D01*
X116214630Y-77820750D01*
X116194435Y-77999996D01*
X116194435Y-78000003D01*
X116214630Y-78179249D01*
X116214631Y-78179254D01*
X116274211Y-78349523D01*
X116367341Y-78497737D01*
X116370184Y-78502262D01*
X116497738Y-78629816D01*
X116650478Y-78725789D01*
X116820745Y-78785368D01*
X116825877Y-78785946D01*
X116890293Y-78813010D01*
X116929851Y-78870603D01*
X116936000Y-78909167D01*
X116936000Y-79129708D01*
X116916315Y-79196747D01*
X116863511Y-79242502D01*
X116794353Y-79252446D01*
X116771046Y-79246750D01*
X116679257Y-79214632D01*
X116679249Y-79214630D01*
X116500004Y-79194435D01*
X116499996Y-79194435D01*
X116320750Y-79214630D01*
X116320745Y-79214631D01*
X116150476Y-79274211D01*
X115997737Y-79370184D01*
X115870184Y-79497737D01*
X115774211Y-79650476D01*
X115714631Y-79820745D01*
X115714630Y-79820749D01*
X115698283Y-79965840D01*
X115671216Y-80030254D01*
X115662744Y-80039637D01*
X114802702Y-80899681D01*
X114741379Y-80933166D01*
X114715021Y-80936000D01*
X111515217Y-80936000D01*
X111448178Y-80916315D01*
X111402423Y-80863511D01*
X111392479Y-80794353D01*
X111416263Y-80737273D01*
X111503712Y-80621472D01*
X111600817Y-80426459D01*
X111660435Y-80216923D01*
X111680536Y-80000000D01*
X111660435Y-79783077D01*
X111600817Y-79573541D01*
X111503712Y-79378528D01*
X111372427Y-79204678D01*
X111345016Y-79179690D01*
X111255996Y-79098537D01*
X111211432Y-79057912D01*
X111211428Y-79057909D01*
X111211423Y-79057906D01*
X111026213Y-78943229D01*
X111026207Y-78943226D01*
X110938289Y-78909167D01*
X110823069Y-78864530D01*
X110608926Y-78824500D01*
X110391074Y-78824500D01*
X110176931Y-78864530D01*
X110133896Y-78881202D01*
X109973792Y-78943226D01*
X109973786Y-78943229D01*
X109788576Y-79057906D01*
X109788566Y-79057913D01*
X109627573Y-79204676D01*
X109598953Y-79242576D01*
X109542844Y-79284211D01*
X109473132Y-79288902D01*
X109411950Y-79255159D01*
X109401047Y-79242576D01*
X109372426Y-79204676D01*
X109211433Y-79057913D01*
X109211423Y-79057906D01*
X109026213Y-78943229D01*
X109026207Y-78943226D01*
X108938289Y-78909167D01*
X108823069Y-78864530D01*
X108608926Y-78824500D01*
X108391074Y-78824500D01*
X108176931Y-78864530D01*
X108133896Y-78881202D01*
X107973792Y-78943226D01*
X107973786Y-78943229D01*
X107788576Y-79057906D01*
X107788566Y-79057913D01*
X107627573Y-79204676D01*
X107598953Y-79242576D01*
X107542844Y-79284211D01*
X107473132Y-79288902D01*
X107411950Y-79255159D01*
X107401047Y-79242576D01*
X107372426Y-79204676D01*
X107211433Y-79057913D01*
X107211423Y-79057906D01*
X107026213Y-78943229D01*
X107026207Y-78943226D01*
X106938289Y-78909167D01*
X106823069Y-78864530D01*
X106608926Y-78824500D01*
X106391074Y-78824500D01*
X106176931Y-78864530D01*
X106133896Y-78881202D01*
X105973792Y-78943226D01*
X105973786Y-78943229D01*
X105788576Y-79057906D01*
X105788566Y-79057913D01*
X105627573Y-79204676D01*
X105598953Y-79242576D01*
X105542844Y-79284211D01*
X105473132Y-79288902D01*
X105411950Y-79255159D01*
X105401047Y-79242576D01*
X105372426Y-79204676D01*
X105211433Y-79057913D01*
X105211423Y-79057906D01*
X105026213Y-78943229D01*
X105026207Y-78943226D01*
X104938289Y-78909167D01*
X104823069Y-78864530D01*
X104608926Y-78824500D01*
X104391074Y-78824500D01*
X104176931Y-78864530D01*
X104133896Y-78881202D01*
X103973792Y-78943226D01*
X103973786Y-78943229D01*
X103788565Y-79057913D01*
X103777585Y-79067923D01*
X103714780Y-79098537D01*
X103645393Y-79090336D01*
X103594785Y-79050594D01*
X103534260Y-78969744D01*
X103532546Y-78967454D01*
X103532544Y-78967453D01*
X103532544Y-78967452D01*
X103417335Y-78881206D01*
X103417328Y-78881202D01*
X103282482Y-78830908D01*
X103282483Y-78830908D01*
X103222883Y-78824501D01*
X103222881Y-78824500D01*
X103222873Y-78824500D01*
X103222864Y-78824500D01*
X101777129Y-78824500D01*
X101777123Y-78824501D01*
X101717516Y-78830908D01*
X101582671Y-78881202D01*
X101582664Y-78881206D01*
X101467455Y-78967452D01*
X101467452Y-78967455D01*
X101381206Y-79082664D01*
X101381202Y-79082671D01*
X101330908Y-79217517D01*
X101324501Y-79277116D01*
X101324500Y-79277135D01*
X101324500Y-80722870D01*
X101324501Y-80722876D01*
X101330908Y-80782483D01*
X101381202Y-80917328D01*
X101381206Y-80917335D01*
X101467452Y-81032544D01*
X101467455Y-81032547D01*
X101582664Y-81118793D01*
X101582671Y-81118797D01*
X101718833Y-81169582D01*
X101774767Y-81211453D01*
X101799184Y-81276917D01*
X101799500Y-81285764D01*
X101799500Y-84476951D01*
X101799387Y-84480696D01*
X101798083Y-84502262D01*
X101795642Y-84542606D01*
X101805746Y-84597748D01*
X101806821Y-84603612D01*
X101807384Y-84607313D01*
X101814859Y-84668870D01*
X101814860Y-84668874D01*
X101818451Y-84678343D01*
X101824474Y-84699946D01*
X101826304Y-84709930D01*
X101851759Y-84766490D01*
X101853189Y-84769941D01*
X101875182Y-84827930D01*
X101875183Y-84827931D01*
X101880936Y-84836266D01*
X101891961Y-84855813D01*
X101896120Y-84865055D01*
X101896124Y-84865060D01*
X101934371Y-84913878D01*
X101936591Y-84916896D01*
X101971812Y-84967924D01*
X101971816Y-84967928D01*
X101971817Y-84967929D01*
X102018250Y-85009064D01*
X102020941Y-85011598D01*
X102379528Y-85370184D01*
X102708631Y-85699287D01*
X102737991Y-85746013D01*
X102764141Y-85820745D01*
X102774211Y-85849522D01*
X102870184Y-86002262D01*
X102997738Y-86129816D01*
X103150478Y-86225789D01*
X103320745Y-86285368D01*
X103320750Y-86285369D01*
X103499996Y-86305565D01*
X103500000Y-86305565D01*
X103500004Y-86305565D01*
X103679249Y-86285369D01*
X103679252Y-86285368D01*
X103679255Y-86285368D01*
X103849522Y-86225789D01*
X104002262Y-86129816D01*
X104129816Y-86002262D01*
X104225789Y-85849522D01*
X104285368Y-85679255D01*
X104285369Y-85679249D01*
X104305565Y-85500003D01*
X104305565Y-85499996D01*
X104285369Y-85320750D01*
X104285368Y-85320745D01*
X104278283Y-85300498D01*
X104225789Y-85150478D01*
X104220909Y-85142712D01*
X104142960Y-85018657D01*
X104129816Y-84997738D01*
X104002262Y-84870184D01*
X103935014Y-84827929D01*
X103849524Y-84774212D01*
X103849520Y-84774210D01*
X103746013Y-84737991D01*
X103699287Y-84708631D01*
X103236819Y-84246162D01*
X103203334Y-84184839D01*
X103200500Y-84158481D01*
X103200500Y-81285764D01*
X103220185Y-81218725D01*
X103272989Y-81172970D01*
X103281167Y-81169582D01*
X103417328Y-81118797D01*
X103417327Y-81118797D01*
X103417331Y-81118796D01*
X103532546Y-81032546D01*
X103594785Y-80949404D01*
X103650718Y-80907535D01*
X103720410Y-80902551D01*
X103777588Y-80932078D01*
X103788568Y-80942088D01*
X103788570Y-80942089D01*
X103788571Y-80942090D01*
X103973786Y-81056770D01*
X103973792Y-81056773D01*
X103996664Y-81065633D01*
X104176931Y-81135470D01*
X104391074Y-81175500D01*
X104391076Y-81175500D01*
X104608924Y-81175500D01*
X104608926Y-81175500D01*
X104823069Y-81135470D01*
X105026210Y-81056772D01*
X105211432Y-80942088D01*
X105372427Y-80795322D01*
X105401047Y-80757422D01*
X105457153Y-80715787D01*
X105526865Y-80711094D01*
X105588048Y-80744836D01*
X105598946Y-80757414D01*
X105627573Y-80795322D01*
X105627576Y-80795325D01*
X105627578Y-80795327D01*
X105655463Y-80820747D01*
X105772924Y-80927827D01*
X105786085Y-80939824D01*
X105822366Y-80999535D01*
X105820606Y-81069382D01*
X105807541Y-81097433D01*
X105774211Y-81150476D01*
X105714631Y-81320745D01*
X105714630Y-81320750D01*
X105694435Y-81499996D01*
X105694435Y-81500003D01*
X105714630Y-81679249D01*
X105714631Y-81679254D01*
X105774211Y-81849523D01*
X105817360Y-81918193D01*
X105870184Y-82002262D01*
X105997738Y-82129816D01*
X106055648Y-82166203D01*
X106145835Y-82222872D01*
X106150478Y-82225789D01*
X106306962Y-82280545D01*
X106320745Y-82285368D01*
X106320750Y-82285369D01*
X106499996Y-82305565D01*
X106500000Y-82305565D01*
X106500004Y-82305565D01*
X106679249Y-82285369D01*
X106679252Y-82285368D01*
X106679255Y-82285368D01*
X106849522Y-82225789D01*
X107002262Y-82129816D01*
X107031759Y-82100319D01*
X107093082Y-82066834D01*
X107119440Y-82064000D01*
X108710469Y-82064000D01*
X108777508Y-82083685D01*
X108823263Y-82136489D01*
X108833207Y-82205647D01*
X108831146Y-82216514D01*
X108830908Y-82217518D01*
X108824655Y-82275681D01*
X108824501Y-82277123D01*
X108824500Y-82277135D01*
X108824500Y-83722870D01*
X108824501Y-83722876D01*
X108830908Y-83782483D01*
X108881202Y-83917328D01*
X108881206Y-83917335D01*
X108967452Y-84032544D01*
X108967455Y-84032547D01*
X109082664Y-84118793D01*
X109082671Y-84118797D01*
X109217517Y-84169091D01*
X109217516Y-84169091D01*
X109224444Y-84169835D01*
X109277127Y-84175500D01*
X110722872Y-84175499D01*
X110782483Y-84169091D01*
X110917331Y-84118796D01*
X111032546Y-84032546D01*
X111118796Y-83917331D01*
X111169091Y-83782483D01*
X111175500Y-83722873D01*
X111175499Y-82277128D01*
X111169091Y-82217517D01*
X111169090Y-82217514D01*
X111168856Y-82216521D01*
X111168898Y-82215725D01*
X111168262Y-82209804D01*
X111169221Y-82209700D01*
X111172593Y-82146752D01*
X111213457Y-82090078D01*
X111278474Y-82064494D01*
X111289531Y-82064000D01*
X114312000Y-82064000D01*
X114379039Y-82083685D01*
X114424794Y-82136489D01*
X114436000Y-82188000D01*
X114436000Y-82958963D01*
X114435468Y-82967064D01*
X114431133Y-83000000D01*
X114450517Y-83147234D01*
X114507347Y-83284433D01*
X114514636Y-83293933D01*
X114597750Y-83402250D01*
X114624103Y-83422471D01*
X114630208Y-83427825D01*
X115072172Y-83869789D01*
X115077523Y-83875890D01*
X115097750Y-83902250D01*
X115127331Y-83924948D01*
X115127332Y-83924949D01*
X115168392Y-83956454D01*
X115215565Y-83992652D01*
X115215566Y-83992652D01*
X115215567Y-83992653D01*
X115250549Y-84007143D01*
X115352766Y-84049483D01*
X115499999Y-84068868D01*
X115500000Y-84068868D01*
X115532942Y-84064530D01*
X115541043Y-84064000D01*
X116590832Y-84064000D01*
X116657871Y-84083685D01*
X116703626Y-84136489D01*
X116714052Y-84174112D01*
X116714631Y-84179252D01*
X116714631Y-84179254D01*
X116774211Y-84349523D01*
X116828215Y-84435469D01*
X116870184Y-84502262D01*
X116997738Y-84629816D01*
X117074968Y-84678343D01*
X117135783Y-84716556D01*
X117150478Y-84725789D01*
X117266795Y-84766490D01*
X117320745Y-84785368D01*
X117320750Y-84785369D01*
X117499996Y-84805565D01*
X117500000Y-84805565D01*
X117500004Y-84805565D01*
X117679249Y-84785369D01*
X117679252Y-84785368D01*
X117679255Y-84785368D01*
X117849522Y-84725789D01*
X118002262Y-84629816D01*
X118129816Y-84502262D01*
X118225789Y-84349522D01*
X118285368Y-84179255D01*
X118285791Y-84175500D01*
X118305565Y-84000003D01*
X118305565Y-83999996D01*
X118285369Y-83820750D01*
X118285366Y-83820737D01*
X118256574Y-83738455D01*
X118253012Y-83668676D01*
X118287740Y-83608049D01*
X118349733Y-83575821D01*
X118373615Y-83573500D01*
X119126385Y-83573500D01*
X119193424Y-83593185D01*
X119239179Y-83645989D01*
X119249123Y-83715147D01*
X119243426Y-83738455D01*
X119214633Y-83820737D01*
X119214630Y-83820750D01*
X119194435Y-83999996D01*
X119194435Y-84000003D01*
X119214630Y-84179249D01*
X119214631Y-84179254D01*
X119274211Y-84349523D01*
X119328215Y-84435469D01*
X119370184Y-84502262D01*
X119497738Y-84629816D01*
X119650478Y-84725789D01*
X119820745Y-84785368D01*
X119825877Y-84785946D01*
X119890293Y-84813010D01*
X119929851Y-84870603D01*
X119936000Y-84909167D01*
X119936000Y-86958963D01*
X119935469Y-86967064D01*
X119931133Y-86999998D01*
X119931133Y-87000000D01*
X119936000Y-87036967D01*
X119950517Y-87147233D01*
X119950517Y-87147234D01*
X120007347Y-87284434D01*
X120097749Y-87402249D01*
X120097750Y-87402250D01*
X120124110Y-87422477D01*
X120130200Y-87427817D01*
X121102065Y-88399681D01*
X122072169Y-89369785D01*
X122077522Y-89375889D01*
X122097750Y-89402250D01*
X122173947Y-89460717D01*
X122215567Y-89492653D01*
X122352766Y-89549483D01*
X122482870Y-89566611D01*
X122499999Y-89568867D01*
X122500000Y-89568867D01*
X122532936Y-89564530D01*
X122541034Y-89564000D01*
X123215021Y-89564000D01*
X123282060Y-89583685D01*
X123302702Y-89600319D01*
X123662743Y-89960360D01*
X123696228Y-90021683D01*
X123698282Y-90034157D01*
X123714630Y-90179250D01*
X123714633Y-90179262D01*
X123746750Y-90271045D01*
X123750312Y-90340824D01*
X123715584Y-90401451D01*
X123653590Y-90433679D01*
X123629709Y-90436000D01*
X121619440Y-90436000D01*
X121552401Y-90416315D01*
X121531759Y-90399681D01*
X121502262Y-90370184D01*
X121349523Y-90274211D01*
X121179254Y-90214631D01*
X121179249Y-90214630D01*
X121000004Y-90194435D01*
X120999996Y-90194435D01*
X120820750Y-90214630D01*
X120820745Y-90214631D01*
X120650476Y-90274211D01*
X120497737Y-90370184D01*
X120370184Y-90497737D01*
X120274211Y-90650476D01*
X120214631Y-90820745D01*
X120214630Y-90820750D01*
X120194435Y-90999996D01*
X120194435Y-91000003D01*
X120214630Y-91179249D01*
X120214631Y-91179254D01*
X120274211Y-91349523D01*
X120321604Y-91424948D01*
X120370184Y-91502262D01*
X120497738Y-91629816D01*
X120650478Y-91725789D01*
X120766489Y-91766383D01*
X120820745Y-91785368D01*
X120820750Y-91785369D01*
X120999996Y-91805565D01*
X121000000Y-91805565D01*
X121000004Y-91805565D01*
X121179249Y-91785369D01*
X121179252Y-91785368D01*
X121179255Y-91785368D01*
X121349522Y-91725789D01*
X121502262Y-91629816D01*
X121531759Y-91600319D01*
X121593082Y-91566834D01*
X121619440Y-91564000D01*
X126458966Y-91564000D01*
X126467063Y-91564530D01*
X126500000Y-91568867D01*
X126500001Y-91568867D01*
X126515442Y-91566834D01*
X126647234Y-91549483D01*
X126784433Y-91492653D01*
X126872668Y-91424949D01*
X126872668Y-91424948D01*
X126895606Y-91407348D01*
X126895606Y-91407347D01*
X126902250Y-91402250D01*
X126922476Y-91375888D01*
X126927819Y-91369796D01*
X127197299Y-91100316D01*
X127258621Y-91066834D01*
X127284979Y-91064000D01*
X134715021Y-91064000D01*
X134782060Y-91083685D01*
X134802702Y-91100319D01*
X135572172Y-91869789D01*
X135577523Y-91875890D01*
X135597750Y-91902250D01*
X135612571Y-91913622D01*
X135653775Y-91970049D01*
X135657932Y-92039795D01*
X135623721Y-92100716D01*
X135562004Y-92133471D01*
X135537087Y-92136000D01*
X126841041Y-92136000D01*
X126832942Y-92135469D01*
X126800000Y-92131132D01*
X126799999Y-92131132D01*
X126767058Y-92135469D01*
X126669873Y-92148264D01*
X126658468Y-92149766D01*
X126652765Y-92150517D01*
X126612580Y-92167161D01*
X126515569Y-92207344D01*
X126515566Y-92207346D01*
X126427495Y-92274926D01*
X126397750Y-92297749D01*
X126377522Y-92324110D01*
X126372171Y-92330211D01*
X125439711Y-93262671D01*
X125433608Y-93268023D01*
X125407248Y-93288250D01*
X125373359Y-93332415D01*
X125373343Y-93332438D01*
X125316847Y-93406066D01*
X125260017Y-93543265D01*
X125260017Y-93543266D01*
X125240633Y-93690500D01*
X125244969Y-93723433D01*
X125245500Y-93731534D01*
X125245500Y-94875500D01*
X125225815Y-94942539D01*
X125173011Y-94988294D01*
X125121500Y-94999500D01*
X124452129Y-94999500D01*
X124452116Y-94999501D01*
X124450793Y-94999644D01*
X124444159Y-95000000D01*
X124055845Y-95000000D01*
X124049213Y-94999644D01*
X124047873Y-94999500D01*
X124047871Y-94999500D01*
X122952129Y-94999500D01*
X122952116Y-94999501D01*
X122950793Y-94999644D01*
X122944159Y-95000000D01*
X122555845Y-95000000D01*
X122549213Y-94999644D01*
X122547873Y-94999500D01*
X122547871Y-94999500D01*
X121452129Y-94999500D01*
X121452116Y-94999501D01*
X121450793Y-94999644D01*
X121444159Y-95000000D01*
X121055845Y-95000000D01*
X121049213Y-94999644D01*
X121047873Y-94999500D01*
X121047871Y-94999500D01*
X119952129Y-94999500D01*
X119952116Y-94999501D01*
X119950793Y-94999644D01*
X119944159Y-95000000D01*
X119555845Y-95000000D01*
X119549213Y-94999644D01*
X119547873Y-94999500D01*
X119547871Y-94999500D01*
X118452129Y-94999500D01*
X118452116Y-94999501D01*
X118450793Y-94999644D01*
X118444159Y-95000000D01*
X118055845Y-95000000D01*
X118049213Y-94999644D01*
X118047873Y-94999500D01*
X118047871Y-94999500D01*
X116952129Y-94999500D01*
X116952116Y-94999501D01*
X116950793Y-94999644D01*
X116944159Y-95000000D01*
X116500000Y-95000000D01*
X116500000Y-95444146D01*
X116499645Y-95450777D01*
X116499500Y-95452122D01*
X116499500Y-96812000D01*
X116479815Y-96879039D01*
X116427011Y-96924794D01*
X116375500Y-96936000D01*
X115541041Y-96936000D01*
X115532942Y-96935469D01*
X115500000Y-96931132D01*
X115499999Y-96931132D01*
X115352766Y-96950516D01*
X115215567Y-97007346D01*
X115139819Y-97065470D01*
X115097748Y-97097751D01*
X115077523Y-97124108D01*
X115072171Y-97130211D01*
X115039637Y-97162744D01*
X114978314Y-97196229D01*
X114965840Y-97198283D01*
X114820749Y-97214630D01*
X114820745Y-97214631D01*
X114650476Y-97274211D01*
X114497737Y-97370184D01*
X114370184Y-97497737D01*
X114274211Y-97650476D01*
X114214631Y-97820745D01*
X114214630Y-97820750D01*
X114194435Y-97999996D01*
X114194435Y-98000003D01*
X114214630Y-98179249D01*
X114214631Y-98179254D01*
X114274211Y-98349523D01*
X114370184Y-98502262D01*
X114497738Y-98629816D01*
X114650478Y-98725789D01*
X114820745Y-98785368D01*
X114820750Y-98785369D01*
X114999996Y-98805565D01*
X115000000Y-98805565D01*
X115000004Y-98805565D01*
X115179249Y-98785369D01*
X115179252Y-98785368D01*
X115179255Y-98785368D01*
X115349522Y-98725789D01*
X115502262Y-98629816D01*
X115629816Y-98502262D01*
X115725789Y-98349522D01*
X115785368Y-98179255D01*
X115785594Y-98177246D01*
X115785948Y-98174112D01*
X115813017Y-98109699D01*
X115870613Y-98070146D01*
X115909168Y-98064000D01*
X116375501Y-98064000D01*
X116442540Y-98083685D01*
X116488295Y-98136489D01*
X116499501Y-98188000D01*
X116499501Y-99547880D01*
X116499644Y-99549202D01*
X116500000Y-99555835D01*
X116500000Y-100000000D01*
X116944155Y-100000000D01*
X116950786Y-100000355D01*
X116952127Y-100000500D01*
X117631518Y-100000499D01*
X117698557Y-100020183D01*
X117744312Y-100072987D01*
X117754256Y-100142146D01*
X117735327Y-100192320D01*
X117675826Y-100283393D01*
X117575936Y-100511118D01*
X117514892Y-100752175D01*
X117514890Y-100752187D01*
X117494357Y-100999994D01*
X117494357Y-101000005D01*
X117514890Y-101247812D01*
X117514892Y-101247824D01*
X117575936Y-101488881D01*
X117675826Y-101716606D01*
X117811833Y-101924782D01*
X117811836Y-101924785D01*
X117980256Y-102107738D01*
X118176491Y-102260474D01*
X118395190Y-102378828D01*
X118630386Y-102459571D01*
X118875665Y-102500500D01*
X119124335Y-102500500D01*
X119369614Y-102459571D01*
X119604810Y-102378828D01*
X119642775Y-102358281D01*
X119711098Y-102343686D01*
X119776471Y-102368346D01*
X119806784Y-102401363D01*
X119870182Y-102502260D01*
X119870184Y-102502262D01*
X119997738Y-102629816D01*
X120150478Y-102725789D01*
X120320745Y-102785368D01*
X120320750Y-102785369D01*
X120499996Y-102805565D01*
X120500000Y-102805565D01*
X120500004Y-102805565D01*
X120679249Y-102785369D01*
X120679252Y-102785368D01*
X120679255Y-102785368D01*
X120849522Y-102725789D01*
X120923581Y-102679255D01*
X120934027Y-102672691D01*
X121001264Y-102653690D01*
X121065973Y-102672691D01*
X121150475Y-102725788D01*
X121320745Y-102785368D01*
X121320750Y-102785369D01*
X121499996Y-102805565D01*
X121500000Y-102805565D01*
X121500004Y-102805565D01*
X121679249Y-102785369D01*
X121679252Y-102785368D01*
X121679255Y-102785368D01*
X121849522Y-102725789D01*
X122002262Y-102629816D01*
X122129816Y-102502262D01*
X122225789Y-102349522D01*
X122285368Y-102179255D01*
X122285368Y-102179254D01*
X122287668Y-102172682D01*
X122290370Y-102173627D01*
X122318176Y-102123882D01*
X122379827Y-102091005D01*
X122449466Y-102096678D01*
X122492667Y-102124745D01*
X122497738Y-102129816D01*
X122565959Y-102172682D01*
X122632721Y-102214632D01*
X122650478Y-102225789D01*
X122749602Y-102260474D01*
X122820745Y-102285368D01*
X122820750Y-102285369D01*
X122999996Y-102305565D01*
X123000000Y-102305565D01*
X123000004Y-102305565D01*
X123179249Y-102285369D01*
X123179252Y-102285368D01*
X123179255Y-102285368D01*
X123349522Y-102225789D01*
X123502262Y-102129816D01*
X123629816Y-102002262D01*
X123725789Y-101849522D01*
X123785368Y-101679255D01*
X123788976Y-101647233D01*
X123805565Y-101500003D01*
X123805565Y-101499996D01*
X123785369Y-101320750D01*
X123785366Y-101320737D01*
X123731135Y-101165756D01*
X123727573Y-101095977D01*
X123760493Y-101037122D01*
X123869803Y-100927812D01*
X123875888Y-100922476D01*
X123902250Y-100902250D01*
X123935226Y-100859275D01*
X123986093Y-100792981D01*
X124042521Y-100751778D01*
X124112267Y-100747623D01*
X124173187Y-100781834D01*
X124205941Y-100843551D01*
X124207690Y-100882350D01*
X124194435Y-100999996D01*
X124194435Y-101000003D01*
X124214630Y-101179249D01*
X124214631Y-101179254D01*
X124274211Y-101349523D01*
X124345534Y-101463032D01*
X124370184Y-101502262D01*
X124497738Y-101629816D01*
X124525457Y-101647233D01*
X124635858Y-101716603D01*
X124650478Y-101725789D01*
X124725282Y-101751964D01*
X124820745Y-101785368D01*
X124820750Y-101785369D01*
X124999996Y-101805565D01*
X125000000Y-101805565D01*
X125000004Y-101805565D01*
X125107617Y-101793440D01*
X125176438Y-101805494D01*
X125227818Y-101852844D01*
X125245500Y-101916660D01*
X125245500Y-103650988D01*
X125225815Y-103718027D01*
X125173011Y-103763782D01*
X125151427Y-103771322D01*
X125013228Y-103805691D01*
X125013221Y-103805694D01*
X124841456Y-103890881D01*
X124841453Y-103890883D01*
X124692010Y-104011009D01*
X124692009Y-104011010D01*
X124571883Y-104160453D01*
X124571881Y-104160456D01*
X124486694Y-104332221D01*
X124440419Y-104518291D01*
X124439362Y-104533890D01*
X124415186Y-104599444D01*
X124359407Y-104641521D01*
X124315646Y-104649500D01*
X121023641Y-104649500D01*
X121020040Y-104649395D01*
X120956065Y-104645669D01*
X120956062Y-104645669D01*
X120892943Y-104656798D01*
X120889375Y-104657321D01*
X120825750Y-104664758D01*
X120825743Y-104664759D01*
X120815201Y-104668596D01*
X120794335Y-104674186D01*
X120783297Y-104676132D01*
X120783285Y-104676136D01*
X120724450Y-104701514D01*
X120721100Y-104702845D01*
X120660885Y-104724761D01*
X120660881Y-104724763D01*
X120651502Y-104730931D01*
X120632498Y-104741177D01*
X120622204Y-104745618D01*
X120622189Y-104745626D01*
X120570794Y-104783889D01*
X120567841Y-104785957D01*
X120514306Y-104821168D01*
X120506606Y-104829329D01*
X120490469Y-104843689D01*
X120481470Y-104850388D01*
X120440274Y-104899483D01*
X120437878Y-104902176D01*
X120393905Y-104948784D01*
X120388300Y-104958493D01*
X120375909Y-104976191D01*
X120368699Y-104984783D01*
X120339940Y-105042047D01*
X120338229Y-105045220D01*
X120306188Y-105100717D01*
X120306187Y-105100719D01*
X120302968Y-105111470D01*
X120294996Y-105131537D01*
X120289960Y-105141565D01*
X120289959Y-105141569D01*
X120275182Y-105203912D01*
X120274249Y-105207393D01*
X120255869Y-105268792D01*
X120255217Y-105279990D01*
X120252087Y-105301361D01*
X120249500Y-105312279D01*
X120249500Y-105376358D01*
X120249395Y-105379963D01*
X120245669Y-105443934D01*
X120245669Y-105443935D01*
X120247616Y-105454977D01*
X120249500Y-105476509D01*
X120249500Y-114043709D01*
X120263063Y-114159749D01*
X120264759Y-114174256D01*
X120264760Y-114174259D01*
X120324762Y-114339115D01*
X120324764Y-114339119D01*
X120421167Y-114485693D01*
X120421168Y-114485694D01*
X120485259Y-114546161D01*
X120520513Y-114606484D01*
X120517558Y-114676291D01*
X120507556Y-114698348D01*
X120506191Y-114700712D01*
X120506186Y-114700722D01*
X120455872Y-114868781D01*
X120455869Y-114868794D01*
X120445668Y-115043933D01*
X120461058Y-115131210D01*
X120476135Y-115216711D01*
X120545623Y-115377804D01*
X120545624Y-115377806D01*
X120545626Y-115377809D01*
X120579862Y-115423795D01*
X120650390Y-115518530D01*
X120784786Y-115631302D01*
X120839565Y-115658813D01*
X120941562Y-115710038D01*
X120941563Y-115710038D01*
X120941567Y-115710040D01*
X121112279Y-115750500D01*
X124615646Y-115750500D01*
X124682685Y-115770185D01*
X124728440Y-115822989D01*
X124739362Y-115866115D01*
X124740418Y-115881700D01*
X124740418Y-115881702D01*
X124786694Y-116067778D01*
X124871881Y-116239543D01*
X124871883Y-116239546D01*
X124992009Y-116388989D01*
X124992010Y-116388990D01*
X125141453Y-116509116D01*
X125141456Y-116509118D01*
X125215095Y-116545639D01*
X125313225Y-116594307D01*
X125341926Y-116601444D01*
X125402231Y-116636723D01*
X125433891Y-116699007D01*
X125436000Y-116721778D01*
X125436000Y-116880560D01*
X125416315Y-116947599D01*
X125399681Y-116968241D01*
X125370184Y-116997737D01*
X125274211Y-117150476D01*
X125214631Y-117320745D01*
X125214630Y-117320750D01*
X125194435Y-117499996D01*
X125194435Y-117500003D01*
X125214630Y-117679249D01*
X125214631Y-117679254D01*
X125274211Y-117849523D01*
X125321500Y-117924782D01*
X125370184Y-118002262D01*
X125497738Y-118129816D01*
X125650478Y-118225789D01*
X125749602Y-118260474D01*
X125820745Y-118285368D01*
X125820750Y-118285369D01*
X125999996Y-118305565D01*
X126000000Y-118305565D01*
X126000004Y-118305565D01*
X126179249Y-118285369D01*
X126179252Y-118285368D01*
X126179255Y-118285368D01*
X126349522Y-118225789D01*
X126502262Y-118129816D01*
X126629816Y-118002262D01*
X126725789Y-117849522D01*
X126785368Y-117679255D01*
X126805565Y-117500000D01*
X126804312Y-117488881D01*
X126785369Y-117320750D01*
X126785368Y-117320745D01*
X126725788Y-117150476D01*
X126631240Y-117000005D01*
X133494357Y-117000005D01*
X133514890Y-117247812D01*
X133514892Y-117247824D01*
X133575936Y-117488881D01*
X133675826Y-117716606D01*
X133811833Y-117924782D01*
X133811836Y-117924785D01*
X133980256Y-118107738D01*
X134176491Y-118260474D01*
X134395190Y-118378828D01*
X134630386Y-118459571D01*
X134875665Y-118500500D01*
X135124335Y-118500500D01*
X135369614Y-118459571D01*
X135604810Y-118378828D01*
X135823509Y-118260474D01*
X136019744Y-118107738D01*
X136188164Y-117924785D01*
X136324173Y-117716607D01*
X136424063Y-117488881D01*
X136485108Y-117247821D01*
X136493174Y-117150478D01*
X136505643Y-117000005D01*
X136505643Y-116999994D01*
X136485109Y-116752187D01*
X136485107Y-116752175D01*
X136424063Y-116511118D01*
X136324173Y-116283393D01*
X136188166Y-116075217D01*
X136166557Y-116051744D01*
X136019744Y-115892262D01*
X135823509Y-115739526D01*
X135823507Y-115739525D01*
X135823506Y-115739524D01*
X135604811Y-115621172D01*
X135604802Y-115621169D01*
X135369616Y-115540429D01*
X135124335Y-115499500D01*
X134875665Y-115499500D01*
X134630383Y-115540429D01*
X134395197Y-115621169D01*
X134395188Y-115621172D01*
X134176493Y-115739524D01*
X133980257Y-115892261D01*
X133811833Y-116075217D01*
X133675826Y-116283393D01*
X133575936Y-116511118D01*
X133514892Y-116752175D01*
X133514890Y-116752187D01*
X133494357Y-116999994D01*
X133494357Y-117000005D01*
X126631240Y-117000005D01*
X126631237Y-117000000D01*
X126629816Y-116997738D01*
X126600319Y-116968241D01*
X126566834Y-116906918D01*
X126564000Y-116880560D01*
X126564000Y-116721778D01*
X126583685Y-116654739D01*
X126636489Y-116608984D01*
X126658063Y-116601447D01*
X126686775Y-116594307D01*
X126858547Y-116509116D01*
X127007990Y-116388990D01*
X127128116Y-116239547D01*
X127213307Y-116067775D01*
X127259581Y-115881704D01*
X127260638Y-115866108D01*
X127284814Y-115800556D01*
X127340593Y-115758479D01*
X127384354Y-115750500D01*
X128576359Y-115750500D01*
X128579959Y-115750604D01*
X128643935Y-115754331D01*
X128654977Y-115752384D01*
X128676509Y-115750500D01*
X130776359Y-115750500D01*
X130779959Y-115750604D01*
X130843935Y-115754331D01*
X130907064Y-115743198D01*
X130910606Y-115742679D01*
X130974255Y-115735241D01*
X130984782Y-115731408D01*
X131005672Y-115725811D01*
X131016711Y-115723865D01*
X131075555Y-115698482D01*
X131078876Y-115697161D01*
X131139117Y-115675237D01*
X131148488Y-115669072D01*
X131167506Y-115658818D01*
X131177804Y-115654377D01*
X131229233Y-115616087D01*
X131232128Y-115614060D01*
X131285696Y-115578830D01*
X131293391Y-115570672D01*
X131309534Y-115556306D01*
X131318530Y-115549610D01*
X131359751Y-115500482D01*
X131362090Y-115497855D01*
X131406092Y-115451218D01*
X131411700Y-115441502D01*
X131424093Y-115423803D01*
X131431302Y-115415214D01*
X131460080Y-115357909D01*
X131461741Y-115354826D01*
X131493812Y-115299281D01*
X131497029Y-115288533D01*
X131505006Y-115268455D01*
X131510040Y-115258433D01*
X131524822Y-115196059D01*
X131525744Y-115192617D01*
X131544130Y-115131210D01*
X131544781Y-115120018D01*
X131547917Y-115098617D01*
X131550499Y-115087725D01*
X131550500Y-115087721D01*
X131550500Y-115023640D01*
X131550605Y-115020034D01*
X131554331Y-114956065D01*
X131552384Y-114945021D01*
X131550500Y-114923490D01*
X131550500Y-106356298D01*
X131550500Y-106356291D01*
X131535241Y-106225745D01*
X131475237Y-106060883D01*
X131471595Y-106055346D01*
X131378832Y-105914306D01*
X131378831Y-105914305D01*
X131251221Y-105793910D01*
X131177766Y-105751501D01*
X131129551Y-105700934D01*
X131116327Y-105632327D01*
X131120973Y-105608555D01*
X131144130Y-105531210D01*
X131154331Y-105356065D01*
X131123865Y-105183289D01*
X131054377Y-105022196D01*
X131020127Y-104976191D01*
X130949609Y-104881469D01*
X130832246Y-104782989D01*
X130793544Y-104724818D01*
X130792436Y-104654957D01*
X130829273Y-104595587D01*
X130892360Y-104565557D01*
X130911952Y-104564000D01*
X131715021Y-104564000D01*
X131782060Y-104583685D01*
X131802702Y-104600319D01*
X131899681Y-104697298D01*
X131933166Y-104758621D01*
X131936000Y-104784979D01*
X131936000Y-104958963D01*
X131935468Y-104967064D01*
X131931133Y-105000000D01*
X131948450Y-105131537D01*
X131950517Y-105147233D01*
X131950517Y-105147234D01*
X132007347Y-105284434D01*
X132066673Y-105361750D01*
X132097749Y-105402249D01*
X132124103Y-105422471D01*
X132130208Y-105427825D01*
X135162743Y-108460360D01*
X135196228Y-108521683D01*
X135198282Y-108534157D01*
X135214630Y-108679250D01*
X135214632Y-108679257D01*
X135270044Y-108837615D01*
X135273605Y-108907393D01*
X135238876Y-108968021D01*
X135176883Y-109000248D01*
X135132593Y-109000878D01*
X135124335Y-108999500D01*
X134875665Y-108999500D01*
X134630383Y-109040429D01*
X134395197Y-109121169D01*
X134395188Y-109121172D01*
X134176493Y-109239524D01*
X133980257Y-109392261D01*
X133811833Y-109575217D01*
X133675826Y-109783393D01*
X133575936Y-110011118D01*
X133514892Y-110252175D01*
X133514890Y-110252187D01*
X133494357Y-110499994D01*
X133494357Y-110500005D01*
X133514890Y-110747812D01*
X133514892Y-110747824D01*
X133575936Y-110988881D01*
X133675826Y-111216606D01*
X133811833Y-111424782D01*
X133811836Y-111424785D01*
X133980256Y-111607738D01*
X134176491Y-111760474D01*
X134395190Y-111878828D01*
X134630386Y-111959571D01*
X134875665Y-112000500D01*
X135124335Y-112000500D01*
X135369614Y-111959571D01*
X135604810Y-111878828D01*
X135823509Y-111760474D01*
X136019744Y-111607738D01*
X136188164Y-111424785D01*
X136324173Y-111216607D01*
X136424063Y-110988881D01*
X136485108Y-110747821D01*
X136485109Y-110747812D01*
X136505643Y-110500005D01*
X136505643Y-110499994D01*
X136485109Y-110252187D01*
X136485107Y-110252175D01*
X136424063Y-110011118D01*
X136324173Y-109783393D01*
X136188166Y-109575217D01*
X136175556Y-109561519D01*
X136110925Y-109491311D01*
X136080004Y-109428659D01*
X136087864Y-109359233D01*
X136132011Y-109305077D01*
X136174568Y-109286438D01*
X136179251Y-109285369D01*
X136179253Y-109285368D01*
X136179255Y-109285368D01*
X136349522Y-109225789D01*
X136502262Y-109129816D01*
X136629816Y-109002262D01*
X136725789Y-108849522D01*
X136785368Y-108679255D01*
X136785369Y-108679249D01*
X136805565Y-108500003D01*
X136805565Y-108499996D01*
X136785369Y-108320750D01*
X136785368Y-108320745D01*
X136725788Y-108150476D01*
X136629815Y-107997737D01*
X136502262Y-107870184D01*
X136349523Y-107774211D01*
X136179254Y-107714631D01*
X136179250Y-107714630D01*
X136034157Y-107698282D01*
X135969743Y-107671215D01*
X135960360Y-107662743D01*
X133741552Y-105443935D01*
X137745669Y-105443935D01*
X137747616Y-105454977D01*
X137749500Y-105476509D01*
X137749500Y-114043709D01*
X137763063Y-114159749D01*
X137764759Y-114174256D01*
X137764760Y-114174259D01*
X137824762Y-114339115D01*
X137824764Y-114339119D01*
X137921167Y-114485693D01*
X137921168Y-114485694D01*
X137985259Y-114546161D01*
X138020513Y-114606484D01*
X138017558Y-114676291D01*
X138007556Y-114698348D01*
X138006191Y-114700712D01*
X138006186Y-114700722D01*
X137955872Y-114868781D01*
X137955869Y-114868794D01*
X137945668Y-115043933D01*
X137961058Y-115131210D01*
X137976135Y-115216711D01*
X138045623Y-115377804D01*
X138045624Y-115377806D01*
X138045626Y-115377809D01*
X138079862Y-115423795D01*
X138150390Y-115518530D01*
X138284786Y-115631302D01*
X138339565Y-115658813D01*
X138441562Y-115710038D01*
X138441563Y-115710038D01*
X138441567Y-115710040D01*
X138612279Y-115750500D01*
X142115646Y-115750500D01*
X142182685Y-115770185D01*
X142228440Y-115822989D01*
X142239362Y-115866115D01*
X142240418Y-115881700D01*
X142240418Y-115881702D01*
X142286694Y-116067778D01*
X142371881Y-116239543D01*
X142371883Y-116239546D01*
X142492009Y-116388989D01*
X142492010Y-116388990D01*
X142641453Y-116509116D01*
X142641456Y-116509118D01*
X142715095Y-116545639D01*
X142813225Y-116594307D01*
X142841926Y-116601444D01*
X142902231Y-116636723D01*
X142933891Y-116699007D01*
X142936000Y-116721778D01*
X142936000Y-116880560D01*
X142916315Y-116947599D01*
X142899681Y-116968241D01*
X142870184Y-116997737D01*
X142774211Y-117150476D01*
X142714631Y-117320745D01*
X142714630Y-117320750D01*
X142694435Y-117499996D01*
X142694435Y-117500003D01*
X142714630Y-117679249D01*
X142714631Y-117679254D01*
X142774211Y-117849523D01*
X142821500Y-117924782D01*
X142870184Y-118002262D01*
X142997738Y-118129816D01*
X143150478Y-118225789D01*
X143249602Y-118260474D01*
X143320745Y-118285368D01*
X143320750Y-118285369D01*
X143499996Y-118305565D01*
X143500000Y-118305565D01*
X143500004Y-118305565D01*
X143679249Y-118285369D01*
X143679252Y-118285368D01*
X143679255Y-118285368D01*
X143849522Y-118225789D01*
X144002262Y-118129816D01*
X144129816Y-118002262D01*
X144225789Y-117849522D01*
X144285368Y-117679255D01*
X144305565Y-117500000D01*
X144304312Y-117488881D01*
X144285369Y-117320750D01*
X144285368Y-117320745D01*
X144225788Y-117150476D01*
X144131237Y-117000000D01*
X144129816Y-116997738D01*
X144100319Y-116968241D01*
X144066834Y-116906918D01*
X144064000Y-116880560D01*
X144064000Y-116721778D01*
X144083685Y-116654739D01*
X144136489Y-116608984D01*
X144158063Y-116601447D01*
X144186775Y-116594307D01*
X144358547Y-116509116D01*
X144507990Y-116388990D01*
X144628116Y-116239547D01*
X144713307Y-116067775D01*
X144759581Y-115881704D01*
X144760638Y-115866108D01*
X144784814Y-115800556D01*
X144840593Y-115758479D01*
X144884354Y-115750500D01*
X146076359Y-115750500D01*
X146079959Y-115750604D01*
X146143935Y-115754331D01*
X146154977Y-115752384D01*
X146176509Y-115750500D01*
X148276359Y-115750500D01*
X148279959Y-115750604D01*
X148343935Y-115754331D01*
X148407064Y-115743198D01*
X148410606Y-115742679D01*
X148474255Y-115735241D01*
X148484782Y-115731408D01*
X148505672Y-115725811D01*
X148516711Y-115723865D01*
X148575555Y-115698482D01*
X148578876Y-115697161D01*
X148639117Y-115675237D01*
X148648488Y-115669072D01*
X148667506Y-115658818D01*
X148677804Y-115654377D01*
X148729233Y-115616087D01*
X148732128Y-115614060D01*
X148785696Y-115578830D01*
X148793391Y-115570672D01*
X148809534Y-115556306D01*
X148818530Y-115549610D01*
X148859751Y-115500482D01*
X148862090Y-115497855D01*
X148906092Y-115451218D01*
X148911700Y-115441502D01*
X148924093Y-115423803D01*
X148931302Y-115415214D01*
X148960080Y-115357909D01*
X148961741Y-115354826D01*
X148993812Y-115299281D01*
X148997029Y-115288533D01*
X149005006Y-115268455D01*
X149010040Y-115258433D01*
X149024822Y-115196059D01*
X149025744Y-115192617D01*
X149044130Y-115131210D01*
X149044781Y-115120018D01*
X149047917Y-115098617D01*
X149050499Y-115087725D01*
X149050500Y-115087721D01*
X149050500Y-115023640D01*
X149050605Y-115020034D01*
X149054331Y-114956065D01*
X149052384Y-114945021D01*
X149050500Y-114923490D01*
X149050500Y-106356298D01*
X149050500Y-106356291D01*
X149035241Y-106225745D01*
X148975237Y-106060883D01*
X148971595Y-106055346D01*
X148878832Y-105914306D01*
X148878831Y-105914305D01*
X148751221Y-105793910D01*
X148677766Y-105751501D01*
X148629551Y-105700934D01*
X148616327Y-105632327D01*
X148620973Y-105608555D01*
X148644130Y-105531210D01*
X148654331Y-105356065D01*
X148623865Y-105183289D01*
X148554377Y-105022196D01*
X148520127Y-104976191D01*
X148449609Y-104881469D01*
X148315214Y-104768698D01*
X148315212Y-104768697D01*
X148158437Y-104689961D01*
X148158433Y-104689960D01*
X147987721Y-104649500D01*
X147987718Y-104649500D01*
X144584354Y-104649500D01*
X144517315Y-104629815D01*
X144471560Y-104577011D01*
X144460638Y-104533885D01*
X144459581Y-104518299D01*
X144459581Y-104518297D01*
X144455031Y-104500000D01*
X144413307Y-104332225D01*
X144389605Y-104284434D01*
X144328118Y-104160456D01*
X144328116Y-104160453D01*
X144207990Y-104011010D01*
X144207989Y-104011009D01*
X144082112Y-103909826D01*
X144042193Y-103852483D01*
X144039613Y-103782661D01*
X144072116Y-103725500D01*
X144197299Y-103600316D01*
X144258621Y-103566834D01*
X144284979Y-103564000D01*
X144880560Y-103564000D01*
X144947599Y-103583685D01*
X144968240Y-103600318D01*
X144997738Y-103629816D01*
X145088080Y-103686582D01*
X145134209Y-103715567D01*
X145150478Y-103725789D01*
X145235982Y-103755708D01*
X145320745Y-103785368D01*
X145320750Y-103785369D01*
X145499996Y-103805565D01*
X145500000Y-103805565D01*
X145500004Y-103805565D01*
X145679249Y-103785369D01*
X145679252Y-103785368D01*
X145679255Y-103785368D01*
X145849522Y-103725789D01*
X146002262Y-103629816D01*
X146129816Y-103502262D01*
X146225789Y-103349522D01*
X146285368Y-103179255D01*
X146285369Y-103179249D01*
X146305565Y-103000003D01*
X146305565Y-102999996D01*
X146285369Y-102820750D01*
X146285368Y-102820745D01*
X146252141Y-102725788D01*
X146225789Y-102650478D01*
X146213054Y-102630211D01*
X146155607Y-102538784D01*
X146129816Y-102497738D01*
X146002262Y-102370184D01*
X145960091Y-102343686D01*
X145849523Y-102274211D01*
X145679254Y-102214631D01*
X145679249Y-102214630D01*
X145500004Y-102194435D01*
X145499996Y-102194435D01*
X145320750Y-102214630D01*
X145320745Y-102214631D01*
X145150476Y-102274211D01*
X144997737Y-102370184D01*
X144968241Y-102399681D01*
X144906918Y-102433166D01*
X144880560Y-102436000D01*
X144041041Y-102436000D01*
X144032942Y-102435469D01*
X144000000Y-102431132D01*
X143999999Y-102431132D01*
X143852766Y-102450516D01*
X143715567Y-102507346D01*
X143631322Y-102571990D01*
X143597748Y-102597751D01*
X143577523Y-102624108D01*
X143572171Y-102630211D01*
X142830211Y-103372171D01*
X142824108Y-103377523D01*
X142797748Y-103397750D01*
X142763859Y-103441915D01*
X142763843Y-103441938D01*
X142707347Y-103515566D01*
X142650517Y-103652766D01*
X142645376Y-103691812D01*
X142617108Y-103755708D01*
X142558783Y-103794178D01*
X142552366Y-103795958D01*
X142513226Y-103805692D01*
X142513221Y-103805694D01*
X142341456Y-103890881D01*
X142341453Y-103890883D01*
X142192010Y-104011009D01*
X142192009Y-104011010D01*
X142071883Y-104160453D01*
X142071881Y-104160456D01*
X141986694Y-104332221D01*
X141940419Y-104518291D01*
X141939362Y-104533890D01*
X141915186Y-104599444D01*
X141859407Y-104641521D01*
X141815646Y-104649500D01*
X138523641Y-104649500D01*
X138520040Y-104649395D01*
X138456065Y-104645669D01*
X138456062Y-104645669D01*
X138392943Y-104656798D01*
X138389375Y-104657321D01*
X138325750Y-104664758D01*
X138325743Y-104664759D01*
X138315201Y-104668596D01*
X138294335Y-104674186D01*
X138283297Y-104676132D01*
X138283285Y-104676136D01*
X138224450Y-104701514D01*
X138221100Y-104702845D01*
X138160885Y-104724761D01*
X138160881Y-104724763D01*
X138151502Y-104730931D01*
X138132498Y-104741177D01*
X138122204Y-104745618D01*
X138122189Y-104745626D01*
X138070794Y-104783889D01*
X138067841Y-104785957D01*
X138014306Y-104821168D01*
X138006606Y-104829329D01*
X137990469Y-104843689D01*
X137981470Y-104850388D01*
X137940274Y-104899483D01*
X137937878Y-104902176D01*
X137893905Y-104948784D01*
X137888300Y-104958493D01*
X137875909Y-104976191D01*
X137868699Y-104984783D01*
X137839940Y-105042047D01*
X137838229Y-105045220D01*
X137806188Y-105100717D01*
X137806187Y-105100719D01*
X137802968Y-105111470D01*
X137794996Y-105131537D01*
X137789960Y-105141565D01*
X137789959Y-105141569D01*
X137775182Y-105203912D01*
X137774249Y-105207393D01*
X137755869Y-105268792D01*
X137755217Y-105279990D01*
X137752087Y-105301361D01*
X137749500Y-105312279D01*
X137749500Y-105376358D01*
X137749395Y-105379963D01*
X137745669Y-105443934D01*
X137745669Y-105443935D01*
X133741552Y-105443935D01*
X133100319Y-104802702D01*
X133066834Y-104741379D01*
X133064000Y-104715021D01*
X133064000Y-104541041D01*
X133064531Y-104532939D01*
X133068868Y-104499999D01*
X133049483Y-104352766D01*
X132992652Y-104215565D01*
X132955668Y-104167366D01*
X132924949Y-104127332D01*
X132924948Y-104127331D01*
X132902250Y-104097750D01*
X132875890Y-104077523D01*
X132869789Y-104072172D01*
X132650100Y-103852483D01*
X132427817Y-103630200D01*
X132422477Y-103624110D01*
X132402250Y-103597750D01*
X132402247Y-103597746D01*
X132364609Y-103568868D01*
X132361958Y-103566834D01*
X132295146Y-103515567D01*
X132284432Y-103507346D01*
X132204063Y-103474056D01*
X132147234Y-103450517D01*
X132073617Y-103440825D01*
X132000001Y-103431133D01*
X132000000Y-103431133D01*
X131967063Y-103435469D01*
X131958966Y-103436000D01*
X131118000Y-103436000D01*
X131050961Y-103416315D01*
X131005206Y-103363511D01*
X130994000Y-103312000D01*
X130994000Y-103119440D01*
X131013685Y-103052401D01*
X131030319Y-103031759D01*
X131059816Y-103002262D01*
X131155789Y-102849522D01*
X131215368Y-102679255D01*
X131218249Y-102653690D01*
X131231195Y-102538784D01*
X131258261Y-102474370D01*
X131315856Y-102434815D01*
X131385693Y-102432677D01*
X131442096Y-102464986D01*
X131918886Y-102941775D01*
X131924239Y-102947879D01*
X131944467Y-102974240D01*
X132029234Y-103039283D01*
X132062285Y-103064644D01*
X132112965Y-103085636D01*
X132199483Y-103121473D01*
X132329587Y-103138601D01*
X132346716Y-103140857D01*
X132346717Y-103140857D01*
X132379653Y-103136520D01*
X132387751Y-103135990D01*
X132463032Y-103135990D01*
X135971840Y-103135990D01*
X136037811Y-103154995D01*
X136150478Y-103225789D01*
X136320745Y-103285368D01*
X136320750Y-103285369D01*
X136499996Y-103305565D01*
X136500000Y-103305565D01*
X136500004Y-103305565D01*
X136679249Y-103285369D01*
X136679252Y-103285368D01*
X136679255Y-103285368D01*
X136849522Y-103225789D01*
X137002262Y-103129816D01*
X137129816Y-103002262D01*
X137225789Y-102849522D01*
X137285368Y-102679255D01*
X137286108Y-102672691D01*
X137305565Y-102500003D01*
X137305565Y-102499996D01*
X137285369Y-102320750D01*
X137285368Y-102320745D01*
X137240968Y-102193858D01*
X137225789Y-102150478D01*
X137129816Y-101997738D01*
X137002262Y-101870184D01*
X136969379Y-101849522D01*
X136849523Y-101774211D01*
X136679254Y-101714631D01*
X136679249Y-101714630D01*
X136500004Y-101694435D01*
X136499996Y-101694435D01*
X136320750Y-101714630D01*
X136320745Y-101714631D01*
X136150476Y-101774211D01*
X135997739Y-101870183D01*
X135896250Y-101971672D01*
X135834927Y-102005156D01*
X135808569Y-102007990D01*
X134362935Y-102007990D01*
X134295896Y-101988305D01*
X134250141Y-101935501D01*
X134240197Y-101866343D01*
X134259124Y-101816170D01*
X134324173Y-101716607D01*
X134424063Y-101488881D01*
X134485108Y-101247821D01*
X134490790Y-101179249D01*
X134505643Y-101000005D01*
X134505643Y-100999994D01*
X134485109Y-100752187D01*
X134485107Y-100752175D01*
X134424063Y-100511118D01*
X134324173Y-100283393D01*
X134264673Y-100192320D01*
X134244485Y-100125430D01*
X134263666Y-100058245D01*
X134316125Y-100012095D01*
X134368482Y-100000499D01*
X134547871Y-100000499D01*
X134547872Y-100000499D01*
X134547877Y-100000498D01*
X134547882Y-100000498D01*
X134549207Y-100000356D01*
X134555841Y-100000000D01*
X135000000Y-100000000D01*
X135000000Y-99555845D01*
X135000356Y-99549211D01*
X135000499Y-99547880D01*
X135000500Y-99547873D01*
X135000500Y-98188000D01*
X135020185Y-98120961D01*
X135072989Y-98075206D01*
X135124500Y-98064000D01*
X135590832Y-98064000D01*
X135657871Y-98083685D01*
X135703626Y-98136489D01*
X135714052Y-98174112D01*
X135714631Y-98179252D01*
X135714631Y-98179254D01*
X135774211Y-98349523D01*
X135870184Y-98502262D01*
X135997738Y-98629816D01*
X136150478Y-98725789D01*
X136320745Y-98785368D01*
X136320750Y-98785369D01*
X136499996Y-98805565D01*
X136500000Y-98805565D01*
X136500004Y-98805565D01*
X136679249Y-98785369D01*
X136679252Y-98785368D01*
X136679255Y-98785368D01*
X136849522Y-98725789D01*
X137002262Y-98629816D01*
X137129816Y-98502262D01*
X137225789Y-98349522D01*
X137257114Y-98260001D01*
X142214609Y-98260001D01*
X142234136Y-98483200D01*
X142234137Y-98483208D01*
X142292126Y-98699625D01*
X142292127Y-98699627D01*
X142292128Y-98699630D01*
X142332108Y-98785368D01*
X142386819Y-98902696D01*
X142386821Y-98902700D01*
X142515329Y-99086228D01*
X142515334Y-99086234D01*
X142673765Y-99244665D01*
X142673771Y-99244670D01*
X142857299Y-99373178D01*
X142857301Y-99373179D01*
X142857304Y-99373181D01*
X143060370Y-99467872D01*
X143276794Y-99525863D01*
X143436226Y-99539811D01*
X143499998Y-99545391D01*
X143500000Y-99545391D01*
X143500002Y-99545391D01*
X143556716Y-99540429D01*
X143723206Y-99525863D01*
X143939630Y-99467872D01*
X144142696Y-99373181D01*
X144326233Y-99244667D01*
X144484667Y-99086233D01*
X144613181Y-98902696D01*
X144707872Y-98699630D01*
X144765863Y-98483206D01*
X144785391Y-98260000D01*
X144765863Y-98036794D01*
X144707872Y-97820370D01*
X144613181Y-97617305D01*
X144484667Y-97433767D01*
X144326233Y-97275333D01*
X144326229Y-97275330D01*
X144326228Y-97275329D01*
X144142700Y-97146821D01*
X144142696Y-97146819D01*
X144107080Y-97130211D01*
X143939630Y-97052128D01*
X143939627Y-97052127D01*
X143939625Y-97052126D01*
X143723208Y-96994137D01*
X143723200Y-96994136D01*
X143500002Y-96974609D01*
X143499998Y-96974609D01*
X143276799Y-96994136D01*
X143276791Y-96994137D01*
X143060374Y-97052126D01*
X143060368Y-97052129D01*
X142857306Y-97146818D01*
X142857304Y-97146819D01*
X142673764Y-97275334D01*
X142515334Y-97433764D01*
X142386819Y-97617304D01*
X142386818Y-97617306D01*
X142292129Y-97820368D01*
X142292126Y-97820374D01*
X142234137Y-98036791D01*
X142234136Y-98036799D01*
X142214609Y-98259998D01*
X142214609Y-98260001D01*
X137257114Y-98260001D01*
X137285368Y-98179255D01*
X137285369Y-98179249D01*
X137305565Y-98000003D01*
X137305565Y-97999996D01*
X137285369Y-97820750D01*
X137285368Y-97820745D01*
X137266980Y-97768194D01*
X137225789Y-97650478D01*
X137129816Y-97497738D01*
X137002262Y-97370184D01*
X136849523Y-97274211D01*
X136679254Y-97214631D01*
X136679250Y-97214630D01*
X136534157Y-97198282D01*
X136469743Y-97171215D01*
X136460360Y-97162743D01*
X136444435Y-97146818D01*
X136427817Y-97130200D01*
X136422475Y-97124108D01*
X136402250Y-97097750D01*
X136402248Y-97097749D01*
X136402248Y-97097748D01*
X136360182Y-97065471D01*
X136342794Y-97052129D01*
X136284433Y-97007347D01*
X136284432Y-97007346D01*
X136204063Y-96974056D01*
X136147234Y-96950517D01*
X136073617Y-96940825D01*
X136000001Y-96931133D01*
X136000000Y-96931133D01*
X135967063Y-96935469D01*
X135958966Y-96936000D01*
X135124499Y-96936000D01*
X135057460Y-96916315D01*
X135011705Y-96863511D01*
X135000499Y-96812000D01*
X135000499Y-95452129D01*
X135000498Y-95452118D01*
X135000355Y-95450785D01*
X135000000Y-95444155D01*
X135000000Y-95000000D01*
X134555845Y-95000000D01*
X134549213Y-94999644D01*
X134547873Y-94999500D01*
X134547871Y-94999500D01*
X133452129Y-94999500D01*
X133452116Y-94999501D01*
X133450793Y-94999644D01*
X133444159Y-95000000D01*
X133055845Y-95000000D01*
X133049213Y-94999644D01*
X133047873Y-94999500D01*
X133047871Y-94999500D01*
X131952129Y-94999500D01*
X131952116Y-94999501D01*
X131950793Y-94999644D01*
X131944159Y-95000000D01*
X131555845Y-95000000D01*
X131549213Y-94999644D01*
X131547873Y-94999500D01*
X131547871Y-94999500D01*
X130452129Y-94999500D01*
X130452116Y-94999501D01*
X130450793Y-94999644D01*
X130444159Y-95000000D01*
X130055845Y-95000000D01*
X130049213Y-94999644D01*
X130047873Y-94999500D01*
X130047871Y-94999500D01*
X128952129Y-94999500D01*
X128952116Y-94999501D01*
X128950793Y-94999644D01*
X128944159Y-95000000D01*
X128555845Y-95000000D01*
X128549213Y-94999644D01*
X128547873Y-94999500D01*
X128547871Y-94999500D01*
X127452129Y-94999500D01*
X127452116Y-94999501D01*
X127450793Y-94999644D01*
X127444159Y-95000000D01*
X127055845Y-95000000D01*
X127049213Y-94999644D01*
X127048829Y-94999602D01*
X127047876Y-94999500D01*
X127047873Y-94999500D01*
X126497500Y-94999500D01*
X126430461Y-94979815D01*
X126384706Y-94927011D01*
X126373500Y-94875500D01*
X126373500Y-94087870D01*
X139719500Y-94087870D01*
X139719501Y-94087876D01*
X139725908Y-94147483D01*
X139776202Y-94282328D01*
X139776206Y-94282335D01*
X139862452Y-94397544D01*
X139862455Y-94397547D01*
X139977664Y-94483793D01*
X139977671Y-94483797D01*
X140112517Y-94534091D01*
X140112516Y-94534091D01*
X140119444Y-94534835D01*
X140172127Y-94540500D01*
X141827872Y-94540499D01*
X141887483Y-94534091D01*
X142022331Y-94483796D01*
X142137546Y-94397546D01*
X142223796Y-94282331D01*
X142274091Y-94147483D01*
X142280500Y-94087873D01*
X142280500Y-93260002D01*
X144715111Y-93260002D01*
X144734630Y-93483113D01*
X144734632Y-93483124D01*
X144792596Y-93699450D01*
X144792600Y-93699459D01*
X144887253Y-93902444D01*
X144935334Y-93971111D01*
X145516922Y-93389523D01*
X145540507Y-93469844D01*
X145618239Y-93590798D01*
X145726900Y-93684952D01*
X145857685Y-93744680D01*
X145867466Y-93746086D01*
X145288887Y-94324665D01*
X145357548Y-94372742D01*
X145357554Y-94372746D01*
X145560540Y-94467399D01*
X145560549Y-94467403D01*
X145776875Y-94525367D01*
X145776886Y-94525369D01*
X145999998Y-94544889D01*
X146000002Y-94544889D01*
X146223113Y-94525369D01*
X146223124Y-94525367D01*
X146439450Y-94467403D01*
X146439464Y-94467398D01*
X146642440Y-94372749D01*
X146711111Y-94324664D01*
X146132534Y-93746086D01*
X146142315Y-93744680D01*
X146273100Y-93684952D01*
X146381761Y-93590798D01*
X146459493Y-93469844D01*
X146483076Y-93389523D01*
X147064664Y-93971110D01*
X147112749Y-93902440D01*
X147207398Y-93699464D01*
X147207403Y-93699450D01*
X147265367Y-93483124D01*
X147265369Y-93483113D01*
X147284889Y-93260002D01*
X147284889Y-93259997D01*
X147265369Y-93036886D01*
X147265367Y-93036875D01*
X147207403Y-92820549D01*
X147207399Y-92820540D01*
X147112746Y-92617556D01*
X147064664Y-92548887D01*
X146483076Y-93130475D01*
X146459493Y-93050156D01*
X146381761Y-92929202D01*
X146273100Y-92835048D01*
X146142315Y-92775320D01*
X146132533Y-92773913D01*
X146711111Y-92195334D01*
X146642444Y-92147253D01*
X146439459Y-92052600D01*
X146439450Y-92052596D01*
X146223124Y-91994632D01*
X146223113Y-91994630D01*
X146000002Y-91975111D01*
X145999998Y-91975111D01*
X145776886Y-91994630D01*
X145776875Y-91994632D01*
X145560549Y-92052596D01*
X145560540Y-92052600D01*
X145357552Y-92147255D01*
X145288888Y-92195333D01*
X145288887Y-92195334D01*
X145867467Y-92773913D01*
X145857685Y-92775320D01*
X145726900Y-92835048D01*
X145618239Y-92929202D01*
X145540507Y-93050156D01*
X145516923Y-93130476D01*
X144935334Y-92548887D01*
X144935333Y-92548888D01*
X144887255Y-92617552D01*
X144792600Y-92820540D01*
X144792596Y-92820549D01*
X144734632Y-93036875D01*
X144734630Y-93036886D01*
X144715111Y-93259997D01*
X144715111Y-93260002D01*
X142280500Y-93260002D01*
X142280499Y-92432128D01*
X142274091Y-92372517D01*
X142266724Y-92352766D01*
X142223797Y-92237671D01*
X142223793Y-92237664D01*
X142137547Y-92122455D01*
X142137544Y-92122452D01*
X142022335Y-92036206D01*
X142022328Y-92036202D01*
X141887482Y-91985908D01*
X141887483Y-91985908D01*
X141827883Y-91979501D01*
X141827881Y-91979500D01*
X141827873Y-91979500D01*
X141827864Y-91979500D01*
X140172129Y-91979500D01*
X140172123Y-91979501D01*
X140112516Y-91985908D01*
X139977671Y-92036202D01*
X139977664Y-92036206D01*
X139862455Y-92122452D01*
X139862452Y-92122455D01*
X139776206Y-92237664D01*
X139776202Y-92237671D01*
X139725908Y-92372517D01*
X139720538Y-92422473D01*
X139719501Y-92432123D01*
X139719500Y-92432135D01*
X139719500Y-94087870D01*
X126373500Y-94087870D01*
X126373500Y-93975479D01*
X126393185Y-93908440D01*
X126409819Y-93887798D01*
X126997298Y-93300319D01*
X127058621Y-93266834D01*
X127084979Y-93264000D01*
X137489966Y-93264000D01*
X137498063Y-93264530D01*
X137531000Y-93268867D01*
X137531001Y-93268867D01*
X137556187Y-93265551D01*
X137678234Y-93249483D01*
X137815433Y-93192653D01*
X137903668Y-93124949D01*
X137903668Y-93124948D01*
X137926606Y-93107348D01*
X137926606Y-93107347D01*
X137933250Y-93102250D01*
X137953478Y-93075886D01*
X137958812Y-93069803D01*
X138235293Y-92793321D01*
X138241384Y-92787980D01*
X138267750Y-92767750D01*
X138358153Y-92649933D01*
X138414983Y-92512734D01*
X138429500Y-92402468D01*
X138429500Y-92402466D01*
X138434367Y-92365500D01*
X138430030Y-92332564D01*
X138429500Y-92324464D01*
X138429500Y-90800003D01*
X144494435Y-90800003D01*
X144514630Y-90979249D01*
X144514631Y-90979254D01*
X144574211Y-91149523D01*
X144670184Y-91302262D01*
X144797738Y-91429816D01*
X144950478Y-91525789D01*
X145067778Y-91566834D01*
X145120745Y-91585368D01*
X145120750Y-91585369D01*
X145299996Y-91605565D01*
X145300000Y-91605565D01*
X145300004Y-91605565D01*
X145479249Y-91585369D01*
X145479252Y-91585368D01*
X145479255Y-91585368D01*
X145649522Y-91525789D01*
X145802262Y-91429816D01*
X145929816Y-91302262D01*
X146025789Y-91149522D01*
X146085368Y-90979255D01*
X146105565Y-90800000D01*
X146090629Y-90667439D01*
X146085369Y-90620750D01*
X146085368Y-90620745D01*
X146042326Y-90497738D01*
X146025789Y-90450478D01*
X146015233Y-90433679D01*
X145971144Y-90363511D01*
X145929816Y-90297738D01*
X145900319Y-90268241D01*
X145866834Y-90206918D01*
X145864000Y-90180560D01*
X145864000Y-88484978D01*
X145883685Y-88417939D01*
X145900314Y-88397302D01*
X148860362Y-85437253D01*
X148921683Y-85403770D01*
X148934151Y-85401717D01*
X148999071Y-85394402D01*
X149079250Y-85385369D01*
X149079253Y-85385368D01*
X149079255Y-85385368D01*
X149249522Y-85325789D01*
X149402262Y-85229816D01*
X149529816Y-85102262D01*
X149625789Y-84949522D01*
X149685368Y-84779255D01*
X149685369Y-84779249D01*
X149705565Y-84600003D01*
X149705565Y-84599996D01*
X149685369Y-84420750D01*
X149685368Y-84420745D01*
X149660446Y-84349522D01*
X149625789Y-84250478D01*
X149603265Y-84214632D01*
X149578677Y-84175500D01*
X149529816Y-84097738D01*
X149402262Y-83970184D01*
X149330271Y-83924949D01*
X149249523Y-83874211D01*
X149079254Y-83814631D01*
X149079249Y-83814630D01*
X148900004Y-83794435D01*
X148899996Y-83794435D01*
X148720750Y-83814630D01*
X148720745Y-83814631D01*
X148550476Y-83874211D01*
X148397737Y-83970184D01*
X148270184Y-84097737D01*
X148174211Y-84250476D01*
X148114631Y-84420745D01*
X148114630Y-84420749D01*
X148098283Y-84565840D01*
X148071216Y-84630254D01*
X148062744Y-84639637D01*
X144930211Y-87772171D01*
X144924108Y-87777523D01*
X144897748Y-87797750D01*
X144863859Y-87841915D01*
X144863843Y-87841938D01*
X144807347Y-87915566D01*
X144750517Y-88052765D01*
X144750517Y-88052766D01*
X144731133Y-88200000D01*
X144735469Y-88232933D01*
X144736000Y-88241034D01*
X144736000Y-90180560D01*
X144716315Y-90247599D01*
X144699681Y-90268241D01*
X144670184Y-90297737D01*
X144574211Y-90450476D01*
X144514631Y-90620745D01*
X144514630Y-90620750D01*
X144494435Y-90799996D01*
X144494435Y-90800003D01*
X138429500Y-90800003D01*
X138429500Y-90675541D01*
X138430031Y-90667439D01*
X138432264Y-90650478D01*
X138434368Y-90634500D01*
X138414983Y-90487266D01*
X138371051Y-90381204D01*
X138358154Y-90350066D01*
X138289010Y-90259956D01*
X138288993Y-90259935D01*
X138279527Y-90247599D01*
X138267750Y-90232250D01*
X138241390Y-90212023D01*
X138235289Y-90206672D01*
X136915797Y-88887180D01*
X136882312Y-88825857D01*
X136887296Y-88756165D01*
X136929168Y-88700232D01*
X136994632Y-88675815D01*
X137003478Y-88675499D01*
X137722871Y-88675499D01*
X137722872Y-88675499D01*
X137782483Y-88669091D01*
X137917331Y-88618796D01*
X138032546Y-88532546D01*
X138118796Y-88417331D01*
X138169091Y-88282483D01*
X138175500Y-88222873D01*
X138175499Y-86777128D01*
X138169091Y-86717517D01*
X138168363Y-86715566D01*
X138118797Y-86582671D01*
X138118793Y-86582664D01*
X138032547Y-86467455D01*
X138032544Y-86467452D01*
X137917335Y-86381206D01*
X137917328Y-86381202D01*
X137782482Y-86330908D01*
X137782483Y-86330908D01*
X137722883Y-86324501D01*
X137722881Y-86324500D01*
X137722873Y-86324500D01*
X137722864Y-86324500D01*
X136277129Y-86324500D01*
X136277123Y-86324501D01*
X136217516Y-86330908D01*
X136082671Y-86381202D01*
X136082664Y-86381206D01*
X135967455Y-86467452D01*
X135967452Y-86467455D01*
X135881206Y-86582664D01*
X135881202Y-86582671D01*
X135830908Y-86717517D01*
X135824501Y-86777116D01*
X135824501Y-86777123D01*
X135824500Y-86777135D01*
X135824500Y-86812000D01*
X135804815Y-86879039D01*
X135752011Y-86924794D01*
X135700500Y-86936000D01*
X126119440Y-86936000D01*
X126052401Y-86916315D01*
X126031759Y-86899681D01*
X126002262Y-86870184D01*
X125849521Y-86774210D01*
X125679246Y-86714629D01*
X125672459Y-86713080D01*
X125673008Y-86710671D01*
X125619178Y-86688035D01*
X125579637Y-86630430D01*
X125573500Y-86591902D01*
X125573500Y-85424499D01*
X125593185Y-85357460D01*
X125645989Y-85311705D01*
X125697500Y-85300499D01*
X125800002Y-85300499D01*
X125800008Y-85300499D01*
X125902797Y-85289999D01*
X126069334Y-85234814D01*
X126218656Y-85142712D01*
X126342712Y-85018656D01*
X126434814Y-84869334D01*
X126461597Y-84788506D01*
X126501368Y-84731064D01*
X126565884Y-84704241D01*
X126634660Y-84716556D01*
X126645277Y-84722521D01*
X126650478Y-84725789D01*
X126788860Y-84774211D01*
X126820745Y-84785368D01*
X126820750Y-84785369D01*
X126999996Y-84805565D01*
X127000000Y-84805565D01*
X127000004Y-84805565D01*
X127179249Y-84785369D01*
X127179252Y-84785368D01*
X127179255Y-84785368D01*
X127349522Y-84725789D01*
X127502262Y-84629816D01*
X127629816Y-84502262D01*
X127725789Y-84349522D01*
X127785368Y-84179255D01*
X127785791Y-84175500D01*
X127805565Y-84000003D01*
X127805565Y-83999996D01*
X127785369Y-83820750D01*
X127785368Y-83820745D01*
X127774269Y-83789026D01*
X127725789Y-83650478D01*
X127722968Y-83645989D01*
X127644995Y-83521895D01*
X127629816Y-83497738D01*
X127502262Y-83370184D01*
X127439365Y-83330663D01*
X127349523Y-83274211D01*
X127179254Y-83214631D01*
X127179249Y-83214630D01*
X127000004Y-83194435D01*
X126999996Y-83194435D01*
X126820750Y-83214630D01*
X126820745Y-83214631D01*
X126650474Y-83274212D01*
X126575825Y-83321117D01*
X126508588Y-83340117D01*
X126441753Y-83319749D01*
X126404315Y-83281219D01*
X126342712Y-83181344D01*
X126218657Y-83057289D01*
X126218656Y-83057288D01*
X126069334Y-82965186D01*
X125902797Y-82910001D01*
X125902795Y-82910000D01*
X125800010Y-82899500D01*
X124999998Y-82899500D01*
X124999980Y-82899501D01*
X124897203Y-82910000D01*
X124897200Y-82910001D01*
X124730668Y-82965185D01*
X124730663Y-82965187D01*
X124581342Y-83057289D01*
X124487681Y-83150951D01*
X124426358Y-83184436D01*
X124356666Y-83179452D01*
X124312319Y-83150951D01*
X124218657Y-83057289D01*
X124218656Y-83057288D01*
X124069334Y-82965186D01*
X123902797Y-82910001D01*
X123902795Y-82910000D01*
X123800010Y-82899500D01*
X122999998Y-82899500D01*
X122999980Y-82899501D01*
X122897203Y-82910000D01*
X122897200Y-82910001D01*
X122730668Y-82965185D01*
X122730663Y-82965187D01*
X122581342Y-83057289D01*
X122457289Y-83181342D01*
X122365187Y-83330663D01*
X122365185Y-83330668D01*
X122341465Y-83402250D01*
X122310001Y-83497203D01*
X122310001Y-83497204D01*
X122310000Y-83497204D01*
X122299500Y-83599983D01*
X122299500Y-83666288D01*
X122279815Y-83733327D01*
X122227011Y-83779082D01*
X122157853Y-83789026D01*
X122094297Y-83760001D01*
X122056523Y-83701223D01*
X122052561Y-83682474D01*
X122049483Y-83659094D01*
X121992653Y-83521895D01*
X121992652Y-83521894D01*
X121992652Y-83521893D01*
X121932727Y-83443797D01*
X121924949Y-83433660D01*
X121924948Y-83433659D01*
X121902250Y-83404078D01*
X121875890Y-83383851D01*
X121869789Y-83378500D01*
X121266970Y-82775681D01*
X121233485Y-82714358D01*
X121238469Y-82644666D01*
X121280341Y-82588733D01*
X121345805Y-82564316D01*
X121354651Y-82564000D01*
X131215021Y-82564000D01*
X131282060Y-82583685D01*
X131302702Y-82600319D01*
X132572169Y-83869785D01*
X132577522Y-83875889D01*
X132597750Y-83902250D01*
X132692183Y-83974710D01*
X132707019Y-83986094D01*
X132748222Y-84042522D01*
X132752377Y-84112268D01*
X132718165Y-84173188D01*
X132656448Y-84205941D01*
X132617650Y-84207690D01*
X132500004Y-84194435D01*
X132499996Y-84194435D01*
X132320750Y-84214630D01*
X132320745Y-84214631D01*
X132150476Y-84274211D01*
X131997737Y-84370184D01*
X131870184Y-84497737D01*
X131774211Y-84650476D01*
X131714631Y-84820745D01*
X131714630Y-84820750D01*
X131694435Y-84999996D01*
X131694435Y-85000003D01*
X131714630Y-85179249D01*
X131714631Y-85179254D01*
X131774211Y-85349523D01*
X131864274Y-85492856D01*
X131870184Y-85502262D01*
X131997738Y-85629816D01*
X132076410Y-85679249D01*
X132140150Y-85719300D01*
X132150478Y-85725789D01*
X132208275Y-85746013D01*
X132320745Y-85785368D01*
X132320750Y-85785369D01*
X132499996Y-85805565D01*
X132500000Y-85805565D01*
X132500004Y-85805565D01*
X132679249Y-85785369D01*
X132679252Y-85785368D01*
X132679255Y-85785368D01*
X132849522Y-85725789D01*
X133002262Y-85629816D01*
X133031759Y-85600319D01*
X133093082Y-85566834D01*
X133119440Y-85564000D01*
X138715021Y-85564000D01*
X138782060Y-85583685D01*
X138802702Y-85600319D01*
X142162743Y-88960360D01*
X142196228Y-89021683D01*
X142198282Y-89034157D01*
X142214630Y-89179250D01*
X142214631Y-89179254D01*
X142274211Y-89349523D01*
X142364146Y-89492653D01*
X142370184Y-89502262D01*
X142497738Y-89629816D01*
X142650478Y-89725789D01*
X142779812Y-89771045D01*
X142820745Y-89785368D01*
X142820750Y-89785369D01*
X142999996Y-89805565D01*
X143000000Y-89805565D01*
X143000004Y-89805565D01*
X143179249Y-89785369D01*
X143179252Y-89785368D01*
X143179255Y-89785368D01*
X143349522Y-89725789D01*
X143502262Y-89629816D01*
X143629816Y-89502262D01*
X143725789Y-89349522D01*
X143785368Y-89179255D01*
X143785369Y-89179249D01*
X143805565Y-89000003D01*
X143805565Y-88999996D01*
X143785369Y-88820750D01*
X143785368Y-88820745D01*
X143762770Y-88756165D01*
X143725789Y-88650478D01*
X143705882Y-88618797D01*
X143672375Y-88565470D01*
X143629816Y-88497738D01*
X143502262Y-88370184D01*
X143349523Y-88274211D01*
X143179254Y-88214631D01*
X143179250Y-88214630D01*
X143034157Y-88198282D01*
X142969743Y-88171215D01*
X142960360Y-88162743D01*
X141213932Y-86416315D01*
X139427817Y-84630200D01*
X139422477Y-84624110D01*
X139402250Y-84597750D01*
X139402248Y-84597749D01*
X139402248Y-84597748D01*
X139360182Y-84565471D01*
X139330382Y-84542605D01*
X139284433Y-84507347D01*
X139284432Y-84507346D01*
X139204063Y-84474056D01*
X139147234Y-84450517D01*
X139073617Y-84440825D01*
X139000001Y-84431133D01*
X139000000Y-84431133D01*
X138967063Y-84435469D01*
X138958966Y-84436000D01*
X133119440Y-84436000D01*
X133052401Y-84416315D01*
X133031759Y-84399681D01*
X133002260Y-84370182D01*
X132876891Y-84291407D01*
X132830601Y-84239073D01*
X132819953Y-84170019D01*
X132848328Y-84106171D01*
X132906718Y-84067799D01*
X132959047Y-84063475D01*
X133000000Y-84068867D01*
X133032936Y-84064530D01*
X133041034Y-84064000D01*
X137958966Y-84064000D01*
X137967063Y-84064530D01*
X138000000Y-84068867D01*
X138000001Y-84068867D01*
X138015344Y-84066846D01*
X138147234Y-84049483D01*
X138284433Y-83992653D01*
X138372668Y-83924949D01*
X138372668Y-83924948D01*
X138372670Y-83924947D01*
X138382599Y-83917328D01*
X138402250Y-83902250D01*
X138422476Y-83875887D01*
X138427813Y-83869801D01*
X139138024Y-83159590D01*
X139199345Y-83126107D01*
X139269037Y-83131091D01*
X139324970Y-83172963D01*
X139341885Y-83203941D01*
X139356201Y-83242326D01*
X139356206Y-83242335D01*
X139442452Y-83357544D01*
X139442455Y-83357547D01*
X139557664Y-83443793D01*
X139557671Y-83443797D01*
X139692517Y-83494091D01*
X139692516Y-83494091D01*
X139699444Y-83494835D01*
X139752127Y-83500500D01*
X141847872Y-83500499D01*
X141907483Y-83494091D01*
X142042331Y-83443796D01*
X142157546Y-83357546D01*
X142243796Y-83242331D01*
X142294091Y-83107483D01*
X142300500Y-83047873D01*
X142300500Y-82000005D01*
X146894357Y-82000005D01*
X146914890Y-82247812D01*
X146914892Y-82247824D01*
X146975936Y-82488881D01*
X147075826Y-82716606D01*
X147211833Y-82924782D01*
X147211836Y-82924785D01*
X147380256Y-83107738D01*
X147576491Y-83260474D01*
X147795190Y-83378828D01*
X148030386Y-83459571D01*
X148275665Y-83500500D01*
X148524335Y-83500500D01*
X148769614Y-83459571D01*
X149004810Y-83378828D01*
X149223509Y-83260474D01*
X149419744Y-83107738D01*
X149588164Y-82924785D01*
X149724173Y-82716607D01*
X149824063Y-82488881D01*
X149885108Y-82247821D01*
X149885109Y-82247812D01*
X149905643Y-82000005D01*
X149905643Y-81999994D01*
X149885109Y-81752187D01*
X149885107Y-81752175D01*
X149824063Y-81511118D01*
X149724173Y-81283393D01*
X149588166Y-81075217D01*
X149548884Y-81032546D01*
X149419744Y-80892262D01*
X149223509Y-80739526D01*
X149223507Y-80739525D01*
X149223506Y-80739524D01*
X149004811Y-80621172D01*
X149004802Y-80621169D01*
X148769616Y-80540429D01*
X148524335Y-80499500D01*
X148275665Y-80499500D01*
X148030383Y-80540429D01*
X147795197Y-80621169D01*
X147795188Y-80621172D01*
X147576493Y-80739524D01*
X147380257Y-80892261D01*
X147211833Y-81075217D01*
X147075826Y-81283393D01*
X146975936Y-81511118D01*
X146914892Y-81752175D01*
X146914890Y-81752187D01*
X146894357Y-81999994D01*
X146894357Y-82000005D01*
X142300500Y-82000005D01*
X142300499Y-80952128D01*
X142294091Y-80892517D01*
X142283272Y-80863511D01*
X142243797Y-80757671D01*
X142243793Y-80757664D01*
X142157547Y-80642455D01*
X142157544Y-80642452D01*
X142042335Y-80556206D01*
X142042328Y-80556202D01*
X141907482Y-80505908D01*
X141907483Y-80505908D01*
X141847883Y-80499501D01*
X141847881Y-80499500D01*
X141847873Y-80499500D01*
X141847864Y-80499500D01*
X139752129Y-80499500D01*
X139752123Y-80499501D01*
X139692516Y-80505908D01*
X139557671Y-80556202D01*
X139557664Y-80556206D01*
X139442455Y-80642452D01*
X139442452Y-80642455D01*
X139356206Y-80757664D01*
X139356202Y-80757671D01*
X139305908Y-80892517D01*
X139299501Y-80952116D01*
X139299501Y-80952123D01*
X139299500Y-80952135D01*
X139299500Y-81389726D01*
X139279815Y-81456765D01*
X139227011Y-81502520D01*
X139222955Y-81504286D01*
X139215567Y-81507345D01*
X139097749Y-81597750D01*
X139077522Y-81624110D01*
X139072170Y-81630212D01*
X137802702Y-82899681D01*
X137741379Y-82933166D01*
X137715021Y-82936000D01*
X133284978Y-82936000D01*
X133217939Y-82916315D01*
X133197297Y-82899681D01*
X132573297Y-82275681D01*
X132539812Y-82214358D01*
X132544796Y-82144666D01*
X132586668Y-82088733D01*
X132652132Y-82064316D01*
X132660978Y-82064000D01*
X133700501Y-82064000D01*
X133767540Y-82083685D01*
X133813295Y-82136489D01*
X133824501Y-82188000D01*
X133824501Y-82222876D01*
X133830908Y-82282483D01*
X133881202Y-82417328D01*
X133881206Y-82417335D01*
X133967452Y-82532544D01*
X133967455Y-82532547D01*
X134082664Y-82618793D01*
X134082671Y-82618797D01*
X134217517Y-82669091D01*
X134217516Y-82669091D01*
X134224444Y-82669835D01*
X134277127Y-82675500D01*
X135722872Y-82675499D01*
X135782483Y-82669091D01*
X135917331Y-82618796D01*
X136032546Y-82532546D01*
X136118796Y-82417331D01*
X136169091Y-82282483D01*
X136175500Y-82222873D01*
X136175499Y-80777128D01*
X136169091Y-80717517D01*
X136166695Y-80711094D01*
X136118797Y-80582671D01*
X136118793Y-80582664D01*
X136032547Y-80467455D01*
X136032544Y-80467452D01*
X135917335Y-80381206D01*
X135917328Y-80381202D01*
X135782482Y-80330908D01*
X135782483Y-80330908D01*
X135722883Y-80324501D01*
X135722881Y-80324500D01*
X135722873Y-80324500D01*
X135722864Y-80324500D01*
X134277129Y-80324500D01*
X134277123Y-80324501D01*
X134217516Y-80330908D01*
X134082671Y-80381202D01*
X134082664Y-80381206D01*
X133967455Y-80467452D01*
X133967452Y-80467455D01*
X133881206Y-80582664D01*
X133881202Y-80582671D01*
X133830908Y-80717517D01*
X133824501Y-80777116D01*
X133824501Y-80777123D01*
X133824500Y-80777135D01*
X133824500Y-80812000D01*
X133804815Y-80879039D01*
X133752011Y-80924794D01*
X133700500Y-80936000D01*
X132909168Y-80936000D01*
X132842129Y-80916315D01*
X132796374Y-80863511D01*
X132785948Y-80825888D01*
X132785541Y-80822283D01*
X132785368Y-80820745D01*
X132725789Y-80650478D01*
X132629816Y-80497738D01*
X132502262Y-80370184D01*
X132349523Y-80274211D01*
X132179254Y-80214631D01*
X132179249Y-80214630D01*
X132000004Y-80194435D01*
X131999996Y-80194435D01*
X131820750Y-80214630D01*
X131820745Y-80214631D01*
X131650476Y-80274211D01*
X131497737Y-80370184D01*
X131370184Y-80497737D01*
X131274211Y-80650476D01*
X131214631Y-80820745D01*
X131214630Y-80820750D01*
X131194435Y-80999996D01*
X131194435Y-81000003D01*
X131214630Y-81179249D01*
X131214633Y-81179262D01*
X131246750Y-81271045D01*
X131250312Y-81340824D01*
X131215584Y-81401451D01*
X131153590Y-81433679D01*
X131129709Y-81436000D01*
X119619440Y-81436000D01*
X119552401Y-81416315D01*
X119531759Y-81399681D01*
X119502262Y-81370184D01*
X119349523Y-81274211D01*
X119179254Y-81214631D01*
X119179249Y-81214630D01*
X119000004Y-81194435D01*
X118999996Y-81194435D01*
X118820750Y-81214630D01*
X118820745Y-81214631D01*
X118650476Y-81274211D01*
X118497737Y-81370184D01*
X118370184Y-81497737D01*
X118274211Y-81650476D01*
X118214631Y-81820745D01*
X118214630Y-81820750D01*
X118194435Y-81999996D01*
X118194435Y-82000003D01*
X118214630Y-82179249D01*
X118214633Y-82179262D01*
X118250074Y-82280545D01*
X118253636Y-82350324D01*
X118218908Y-82410951D01*
X118156914Y-82443179D01*
X118133033Y-82445500D01*
X117600807Y-82445500D01*
X117533768Y-82425815D01*
X117513126Y-82409181D01*
X117109819Y-82005874D01*
X117076334Y-81944551D01*
X117073500Y-81918193D01*
X117073500Y-81775478D01*
X117093185Y-81708439D01*
X117109815Y-81687801D01*
X117869803Y-80927812D01*
X117875888Y-80922476D01*
X117902250Y-80902250D01*
X117947574Y-80843182D01*
X117992654Y-80784433D01*
X118049483Y-80647233D01*
X118068868Y-80500000D01*
X118064530Y-80467056D01*
X118064000Y-80458956D01*
X118064000Y-78541041D01*
X118064531Y-78532939D01*
X118068868Y-78499999D01*
X118049483Y-78352766D01*
X117992652Y-78215565D01*
X117922477Y-78124111D01*
X117902250Y-78097750D01*
X117875892Y-78077525D01*
X117869789Y-78072172D01*
X117837255Y-78039638D01*
X117803770Y-77978315D01*
X117801716Y-77965840D01*
X117785369Y-77820750D01*
X117785367Y-77820742D01*
X117731030Y-77665454D01*
X117727469Y-77595676D01*
X117762198Y-77535048D01*
X117824191Y-77502821D01*
X117848072Y-77500500D01*
X127402520Y-77500500D01*
X127469559Y-77520185D01*
X127515314Y-77572989D01*
X127525258Y-77642147D01*
X127496233Y-77705703D01*
X127490201Y-77712181D01*
X127039637Y-78162744D01*
X126978314Y-78196229D01*
X126965840Y-78198283D01*
X126820749Y-78214630D01*
X126820745Y-78214631D01*
X126650476Y-78274211D01*
X126497737Y-78370184D01*
X126370184Y-78497737D01*
X126274211Y-78650476D01*
X126214631Y-78820745D01*
X126214630Y-78820750D01*
X126194435Y-78999996D01*
X126194435Y-79000003D01*
X126214630Y-79179249D01*
X126214631Y-79179254D01*
X126274211Y-79349523D01*
X126367341Y-79497737D01*
X126370184Y-79502262D01*
X126497738Y-79629816D01*
X126650478Y-79725789D01*
X126814198Y-79783077D01*
X126820745Y-79785368D01*
X126820750Y-79785369D01*
X126999996Y-79805565D01*
X127000000Y-79805565D01*
X127000004Y-79805565D01*
X127179249Y-79785369D01*
X127179252Y-79785368D01*
X127179255Y-79785368D01*
X127349522Y-79725789D01*
X127502262Y-79629816D01*
X127629816Y-79502262D01*
X127725789Y-79349522D01*
X127785368Y-79179255D01*
X127801716Y-79034156D01*
X127828782Y-78969744D01*
X127837244Y-78960371D01*
X128197298Y-78600319D01*
X128258621Y-78566834D01*
X128284979Y-78564000D01*
X137380560Y-78564000D01*
X137447599Y-78583685D01*
X137468241Y-78600319D01*
X137497738Y-78629816D01*
X137650478Y-78725789D01*
X137820745Y-78785368D01*
X137820750Y-78785369D01*
X137999996Y-78805565D01*
X138000000Y-78805565D01*
X138000004Y-78805565D01*
X138179249Y-78785369D01*
X138179252Y-78785368D01*
X138179255Y-78785368D01*
X138349522Y-78725789D01*
X138502262Y-78629816D01*
X138629816Y-78502262D01*
X138725789Y-78349522D01*
X138785368Y-78179255D01*
X138785369Y-78179249D01*
X138805565Y-78000003D01*
X138805565Y-77999996D01*
X138785369Y-77820750D01*
X138785367Y-77820742D01*
X138731030Y-77665454D01*
X138727469Y-77595676D01*
X138762198Y-77535048D01*
X138824191Y-77502821D01*
X138848072Y-77500500D01*
X150375500Y-77500500D01*
X150442539Y-77520185D01*
X150488294Y-77572989D01*
X150499500Y-77624500D01*
X150499500Y-100135241D01*
X150479815Y-100202280D01*
X150427011Y-100248035D01*
X150357853Y-100257979D01*
X150294297Y-100228954D01*
X150271691Y-100203063D01*
X150231892Y-100142146D01*
X150188164Y-100075215D01*
X150019744Y-99892262D01*
X149823509Y-99739526D01*
X149823507Y-99739525D01*
X149823506Y-99739524D01*
X149604811Y-99621172D01*
X149604802Y-99621169D01*
X149369616Y-99540429D01*
X149124335Y-99499500D01*
X148875665Y-99499500D01*
X148630383Y-99540429D01*
X148395197Y-99621169D01*
X148395188Y-99621172D01*
X148176493Y-99739524D01*
X147980257Y-99892261D01*
X147811833Y-100075217D01*
X147675826Y-100283393D01*
X147575936Y-100511118D01*
X147514892Y-100752175D01*
X147514890Y-100752187D01*
X147494357Y-100999994D01*
X147494357Y-101000005D01*
X147514890Y-101247812D01*
X147514892Y-101247824D01*
X147575936Y-101488881D01*
X147675826Y-101716606D01*
X147811833Y-101924782D01*
X147811836Y-101924785D01*
X147980256Y-102107738D01*
X148176491Y-102260474D01*
X148395190Y-102378828D01*
X148630386Y-102459571D01*
X148875665Y-102500500D01*
X149124335Y-102500500D01*
X149369614Y-102459571D01*
X149604810Y-102378828D01*
X149823509Y-102260474D01*
X150019744Y-102107738D01*
X150188164Y-101924785D01*
X150223837Y-101870184D01*
X150271691Y-101796937D01*
X150324837Y-101751580D01*
X150394069Y-101742156D01*
X150457404Y-101771658D01*
X150494736Y-101830718D01*
X150499500Y-101864758D01*
X150499500Y-119375500D01*
X150479815Y-119442539D01*
X150427011Y-119488294D01*
X150375500Y-119499500D01*
X100624500Y-119499500D01*
X100557461Y-119479815D01*
X100511706Y-119427011D01*
X100500500Y-119375500D01*
X100500500Y-105443935D01*
X102045669Y-105443935D01*
X102047616Y-105454977D01*
X102049500Y-105476509D01*
X102049500Y-114043709D01*
X102063063Y-114159749D01*
X102064759Y-114174256D01*
X102064760Y-114174259D01*
X102124762Y-114339115D01*
X102124764Y-114339119D01*
X102221167Y-114485693D01*
X102221168Y-114485694D01*
X102285259Y-114546161D01*
X102320513Y-114606484D01*
X102317558Y-114676291D01*
X102307556Y-114698348D01*
X102306191Y-114700712D01*
X102306186Y-114700722D01*
X102255872Y-114868781D01*
X102255869Y-114868794D01*
X102245668Y-115043933D01*
X102261058Y-115131210D01*
X102276135Y-115216711D01*
X102345623Y-115377804D01*
X102345624Y-115377806D01*
X102345626Y-115377809D01*
X102379862Y-115423795D01*
X102450390Y-115518530D01*
X102584786Y-115631302D01*
X102639565Y-115658813D01*
X102741562Y-115710038D01*
X102741563Y-115710038D01*
X102741567Y-115710040D01*
X102912279Y-115750500D01*
X106415646Y-115750500D01*
X106482685Y-115770185D01*
X106528440Y-115822989D01*
X106539362Y-115866115D01*
X106540418Y-115881700D01*
X106540418Y-115881702D01*
X106586694Y-116067778D01*
X106671881Y-116239543D01*
X106671883Y-116239546D01*
X106792007Y-116388987D01*
X106792008Y-116388988D01*
X106792010Y-116388990D01*
X106889689Y-116467506D01*
X106929606Y-116524846D01*
X106936000Y-116564151D01*
X106936000Y-116880560D01*
X106916315Y-116947599D01*
X106899681Y-116968241D01*
X106870184Y-116997737D01*
X106774211Y-117150476D01*
X106714631Y-117320745D01*
X106714630Y-117320750D01*
X106694435Y-117499996D01*
X106694435Y-117500003D01*
X106714630Y-117679249D01*
X106714631Y-117679254D01*
X106774211Y-117849523D01*
X106821500Y-117924782D01*
X106870184Y-118002262D01*
X106997738Y-118129816D01*
X107150478Y-118225789D01*
X107249602Y-118260474D01*
X107320745Y-118285368D01*
X107320750Y-118285369D01*
X107499996Y-118305565D01*
X107500000Y-118305565D01*
X107500004Y-118305565D01*
X107679249Y-118285369D01*
X107679252Y-118285368D01*
X107679255Y-118285368D01*
X107849522Y-118225789D01*
X108002262Y-118129816D01*
X108129816Y-118002262D01*
X108225789Y-117849522D01*
X108285368Y-117679255D01*
X108305565Y-117500000D01*
X108304312Y-117488881D01*
X108285369Y-117320750D01*
X108285368Y-117320745D01*
X108225788Y-117150476D01*
X108131240Y-117000005D01*
X114994357Y-117000005D01*
X115014890Y-117247812D01*
X115014892Y-117247824D01*
X115075936Y-117488881D01*
X115175826Y-117716606D01*
X115311833Y-117924782D01*
X115311836Y-117924785D01*
X115480256Y-118107738D01*
X115676491Y-118260474D01*
X115895190Y-118378828D01*
X116130386Y-118459571D01*
X116375665Y-118500500D01*
X116624335Y-118500500D01*
X116869614Y-118459571D01*
X117104810Y-118378828D01*
X117323509Y-118260474D01*
X117519744Y-118107738D01*
X117688164Y-117924785D01*
X117824173Y-117716607D01*
X117924063Y-117488881D01*
X117985108Y-117247821D01*
X117993174Y-117150478D01*
X118005643Y-117000005D01*
X118005643Y-116999994D01*
X117985109Y-116752187D01*
X117985107Y-116752175D01*
X117924063Y-116511118D01*
X117824173Y-116283393D01*
X117688166Y-116075217D01*
X117666557Y-116051744D01*
X117519744Y-115892262D01*
X117323509Y-115739526D01*
X117323507Y-115739525D01*
X117323506Y-115739524D01*
X117104811Y-115621172D01*
X117104802Y-115621169D01*
X116869616Y-115540429D01*
X116624335Y-115499500D01*
X116375665Y-115499500D01*
X116130383Y-115540429D01*
X115895197Y-115621169D01*
X115895188Y-115621172D01*
X115676493Y-115739524D01*
X115480257Y-115892261D01*
X115311833Y-116075217D01*
X115175826Y-116283393D01*
X115075936Y-116511118D01*
X115014892Y-116752175D01*
X115014890Y-116752187D01*
X114994357Y-116999994D01*
X114994357Y-117000005D01*
X108131240Y-117000005D01*
X108131237Y-117000000D01*
X108129816Y-116997738D01*
X108100319Y-116968241D01*
X108066834Y-116906918D01*
X108064000Y-116880560D01*
X108064000Y-116767499D01*
X108083685Y-116700460D01*
X108136489Y-116654705D01*
X108188000Y-116643499D01*
X108257657Y-116643499D01*
X108268418Y-116642769D01*
X108300704Y-116640581D01*
X108486775Y-116594307D01*
X108658547Y-116509116D01*
X108807990Y-116388990D01*
X108928116Y-116239547D01*
X109013307Y-116067775D01*
X109059581Y-115881704D01*
X109060638Y-115866108D01*
X109084814Y-115800556D01*
X109140593Y-115758479D01*
X109184354Y-115750500D01*
X110376359Y-115750500D01*
X110379959Y-115750604D01*
X110443935Y-115754331D01*
X110454977Y-115752384D01*
X110476509Y-115750500D01*
X112576359Y-115750500D01*
X112579959Y-115750604D01*
X112643935Y-115754331D01*
X112707064Y-115743198D01*
X112710606Y-115742679D01*
X112774255Y-115735241D01*
X112784782Y-115731408D01*
X112805672Y-115725811D01*
X112816711Y-115723865D01*
X112875555Y-115698482D01*
X112878876Y-115697161D01*
X112939117Y-115675237D01*
X112948488Y-115669072D01*
X112967506Y-115658818D01*
X112977804Y-115654377D01*
X113029233Y-115616087D01*
X113032128Y-115614060D01*
X113085696Y-115578830D01*
X113093391Y-115570672D01*
X113109534Y-115556306D01*
X113118530Y-115549610D01*
X113159751Y-115500482D01*
X113162090Y-115497855D01*
X113206092Y-115451218D01*
X113211700Y-115441502D01*
X113224093Y-115423803D01*
X113231302Y-115415214D01*
X113260080Y-115357909D01*
X113261741Y-115354826D01*
X113293812Y-115299281D01*
X113297029Y-115288533D01*
X113305006Y-115268455D01*
X113310040Y-115258433D01*
X113324822Y-115196059D01*
X113325744Y-115192617D01*
X113344130Y-115131210D01*
X113344781Y-115120018D01*
X113347917Y-115098617D01*
X113350499Y-115087725D01*
X113350500Y-115087721D01*
X113350500Y-115023640D01*
X113350605Y-115020034D01*
X113354331Y-114956065D01*
X113352384Y-114945021D01*
X113350500Y-114923490D01*
X113350500Y-110500005D01*
X114994357Y-110500005D01*
X115014890Y-110747812D01*
X115014892Y-110747824D01*
X115075936Y-110988881D01*
X115175826Y-111216606D01*
X115311833Y-111424782D01*
X115311836Y-111424785D01*
X115480256Y-111607738D01*
X115676491Y-111760474D01*
X115895190Y-111878828D01*
X116130386Y-111959571D01*
X116375665Y-112000500D01*
X116624335Y-112000500D01*
X116869614Y-111959571D01*
X117104810Y-111878828D01*
X117323509Y-111760474D01*
X117519744Y-111607738D01*
X117688164Y-111424785D01*
X117824173Y-111216607D01*
X117924063Y-110988881D01*
X117985108Y-110747821D01*
X117985109Y-110747812D01*
X118005643Y-110500005D01*
X118005643Y-110499994D01*
X117985109Y-110252187D01*
X117985107Y-110252175D01*
X117924063Y-110011118D01*
X117824173Y-109783393D01*
X117688166Y-109575217D01*
X117666557Y-109551744D01*
X117519744Y-109392262D01*
X117323509Y-109239526D01*
X117323507Y-109239525D01*
X117323506Y-109239524D01*
X117104811Y-109121172D01*
X117104802Y-109121169D01*
X116869616Y-109040429D01*
X116624335Y-108999500D01*
X116375665Y-108999500D01*
X116130383Y-109040429D01*
X115895197Y-109121169D01*
X115895188Y-109121172D01*
X115676493Y-109239524D01*
X115480257Y-109392261D01*
X115311833Y-109575217D01*
X115175826Y-109783393D01*
X115075936Y-110011118D01*
X115014892Y-110252175D01*
X115014890Y-110252187D01*
X114994357Y-110499994D01*
X114994357Y-110500005D01*
X113350500Y-110500005D01*
X113350500Y-106356298D01*
X113350500Y-106356291D01*
X113335241Y-106225745D01*
X113275237Y-106060883D01*
X113271595Y-106055346D01*
X113178832Y-105914306D01*
X113178831Y-105914305D01*
X113051221Y-105793910D01*
X112977766Y-105751501D01*
X112929551Y-105700934D01*
X112916327Y-105632327D01*
X112920973Y-105608555D01*
X112944130Y-105531210D01*
X112954331Y-105356065D01*
X112923865Y-105183289D01*
X112854377Y-105022196D01*
X112820127Y-104976191D01*
X112749609Y-104881469D01*
X112615214Y-104768698D01*
X112615212Y-104768697D01*
X112458437Y-104689961D01*
X112458433Y-104689960D01*
X112287721Y-104649500D01*
X112287718Y-104649500D01*
X108884354Y-104649500D01*
X108817315Y-104629815D01*
X108771560Y-104577011D01*
X108760638Y-104533885D01*
X108759581Y-104518299D01*
X108759581Y-104518297D01*
X108755031Y-104500000D01*
X108713307Y-104332225D01*
X108689605Y-104284434D01*
X108628118Y-104160456D01*
X108628116Y-104160453D01*
X108507990Y-104011010D01*
X108507989Y-104011009D01*
X108358546Y-103890883D01*
X108358543Y-103890881D01*
X108211177Y-103817795D01*
X108159864Y-103770374D01*
X108142335Y-103702739D01*
X108164154Y-103636364D01*
X108178582Y-103619034D01*
X108197302Y-103600314D01*
X108258624Y-103566833D01*
X108284979Y-103564000D01*
X108958966Y-103564000D01*
X108967063Y-103564530D01*
X109000000Y-103568867D01*
X109000001Y-103568867D01*
X109015450Y-103566833D01*
X109147234Y-103549483D01*
X109284433Y-103492653D01*
X109372668Y-103424949D01*
X109372668Y-103424948D01*
X109402250Y-103402250D01*
X109422476Y-103375887D01*
X109427813Y-103369801D01*
X110869799Y-101927815D01*
X110875884Y-101922479D01*
X110902250Y-101902250D01*
X110992653Y-101784433D01*
X111049483Y-101647234D01*
X111064000Y-101536968D01*
X111068867Y-101500000D01*
X111068866Y-101499996D01*
X111064531Y-101467066D01*
X111064000Y-101458965D01*
X111064000Y-92784978D01*
X111083685Y-92717939D01*
X111100315Y-92697301D01*
X111369796Y-92427819D01*
X111375888Y-92422476D01*
X111402250Y-92402250D01*
X111492653Y-92284433D01*
X111549483Y-92147234D01*
X111552103Y-92127332D01*
X111568868Y-92000000D01*
X111564530Y-91967056D01*
X111564000Y-91958956D01*
X111564000Y-87284979D01*
X111583685Y-87217940D01*
X111600319Y-87197298D01*
X112197298Y-86600319D01*
X112258621Y-86566834D01*
X112284979Y-86564000D01*
X116380560Y-86564000D01*
X116447599Y-86583685D01*
X116468241Y-86600319D01*
X116497738Y-86629816D01*
X116517030Y-86641938D01*
X116637311Y-86717516D01*
X116650478Y-86725789D01*
X116820745Y-86785368D01*
X116820750Y-86785369D01*
X116999996Y-86805565D01*
X117000000Y-86805565D01*
X117000004Y-86805565D01*
X117179249Y-86785369D01*
X117179252Y-86785368D01*
X117179255Y-86785368D01*
X117349522Y-86725789D01*
X117502262Y-86629816D01*
X117629816Y-86502262D01*
X117725789Y-86349522D01*
X117785368Y-86179255D01*
X117785369Y-86179249D01*
X117805565Y-86000003D01*
X117805565Y-85999996D01*
X117785369Y-85820750D01*
X117785368Y-85820745D01*
X117742868Y-85699287D01*
X117725789Y-85650478D01*
X117713054Y-85630211D01*
X117635852Y-85507344D01*
X117629816Y-85497738D01*
X117502262Y-85370184D01*
X117431608Y-85325789D01*
X117349523Y-85274211D01*
X117179254Y-85214631D01*
X117179249Y-85214630D01*
X117000004Y-85194435D01*
X116999996Y-85194435D01*
X116820750Y-85214630D01*
X116820745Y-85214631D01*
X116650476Y-85274211D01*
X116497737Y-85370184D01*
X116468241Y-85399681D01*
X116406918Y-85433166D01*
X116380560Y-85436000D01*
X112041041Y-85436000D01*
X112032942Y-85435469D01*
X112000000Y-85431132D01*
X111999999Y-85431132D01*
X111967058Y-85435469D01*
X111869873Y-85448264D01*
X111858468Y-85449766D01*
X111852765Y-85450517D01*
X111812580Y-85467161D01*
X111715569Y-85507344D01*
X111715566Y-85507346D01*
X111627332Y-85575051D01*
X111597750Y-85597748D01*
X111577522Y-85624110D01*
X111572171Y-85630211D01*
X110630211Y-86572171D01*
X110624108Y-86577523D01*
X110597748Y-86597750D01*
X110563859Y-86641915D01*
X110563843Y-86641938D01*
X110507347Y-86715566D01*
X110450517Y-86852765D01*
X110450517Y-86852766D01*
X110431133Y-87000000D01*
X110435469Y-87032933D01*
X110436000Y-87041034D01*
X110436000Y-91715020D01*
X110416315Y-91782059D01*
X110399681Y-91802701D01*
X110130210Y-92072171D01*
X110124108Y-92077523D01*
X110097748Y-92097750D01*
X110063859Y-92141915D01*
X110063843Y-92141938D01*
X110007347Y-92215566D01*
X109950517Y-92352765D01*
X109950517Y-92352766D01*
X109931133Y-92500000D01*
X109935469Y-92532933D01*
X109936000Y-92541034D01*
X109936000Y-101215021D01*
X109916315Y-101282060D01*
X109899681Y-101302702D01*
X108802702Y-102399681D01*
X108741379Y-102433166D01*
X108715021Y-102436000D01*
X108041041Y-102436000D01*
X108032942Y-102435469D01*
X108000000Y-102431132D01*
X107999999Y-102431132D01*
X107852766Y-102450516D01*
X107715567Y-102507346D01*
X107631322Y-102571990D01*
X107597748Y-102597751D01*
X107577523Y-102624108D01*
X107572171Y-102630211D01*
X107130211Y-103072171D01*
X107124108Y-103077523D01*
X107097748Y-103097750D01*
X107063859Y-103141915D01*
X107063843Y-103141938D01*
X107007347Y-103215566D01*
X106950517Y-103352765D01*
X106950517Y-103352766D01*
X106931133Y-103500000D01*
X106935469Y-103532933D01*
X106936000Y-103541034D01*
X106936000Y-103678220D01*
X106916315Y-103745259D01*
X106863511Y-103791014D01*
X106841929Y-103798554D01*
X106813225Y-103805693D01*
X106813221Y-103805694D01*
X106641456Y-103890881D01*
X106641453Y-103890883D01*
X106492010Y-104011009D01*
X106492009Y-104011010D01*
X106371883Y-104160453D01*
X106371881Y-104160456D01*
X106286694Y-104332221D01*
X106240419Y-104518291D01*
X106239362Y-104533890D01*
X106215186Y-104599444D01*
X106159407Y-104641521D01*
X106115646Y-104649500D01*
X102823641Y-104649500D01*
X102820040Y-104649395D01*
X102756065Y-104645669D01*
X102756062Y-104645669D01*
X102692943Y-104656798D01*
X102689375Y-104657321D01*
X102625750Y-104664758D01*
X102625743Y-104664759D01*
X102615201Y-104668596D01*
X102594335Y-104674186D01*
X102583297Y-104676132D01*
X102583285Y-104676136D01*
X102524450Y-104701514D01*
X102521100Y-104702845D01*
X102460885Y-104724761D01*
X102460881Y-104724763D01*
X102451502Y-104730931D01*
X102432498Y-104741177D01*
X102422204Y-104745618D01*
X102422189Y-104745626D01*
X102370794Y-104783889D01*
X102367841Y-104785957D01*
X102314306Y-104821168D01*
X102306606Y-104829329D01*
X102290469Y-104843689D01*
X102281470Y-104850388D01*
X102240274Y-104899483D01*
X102237878Y-104902176D01*
X102193905Y-104948784D01*
X102188300Y-104958493D01*
X102175909Y-104976191D01*
X102168699Y-104984783D01*
X102139940Y-105042047D01*
X102138229Y-105045220D01*
X102106188Y-105100717D01*
X102106187Y-105100719D01*
X102102968Y-105111470D01*
X102094996Y-105131537D01*
X102089960Y-105141565D01*
X102089959Y-105141569D01*
X102075182Y-105203912D01*
X102074249Y-105207393D01*
X102055869Y-105268792D01*
X102055217Y-105279990D01*
X102052087Y-105301361D01*
X102049500Y-105312279D01*
X102049500Y-105376358D01*
X102049395Y-105379963D01*
X102045669Y-105443934D01*
X102045669Y-105443935D01*
X100500500Y-105443935D01*
X100500500Y-101864758D01*
X100520185Y-101797719D01*
X100572989Y-101751964D01*
X100642147Y-101742020D01*
X100705703Y-101771045D01*
X100728309Y-101796937D01*
X100811833Y-101924782D01*
X100811836Y-101924785D01*
X100980256Y-102107738D01*
X101176491Y-102260474D01*
X101395190Y-102378828D01*
X101630386Y-102459571D01*
X101875665Y-102500500D01*
X102124335Y-102500500D01*
X102369614Y-102459571D01*
X102604810Y-102378828D01*
X102823509Y-102260474D01*
X103019744Y-102107738D01*
X103188164Y-101924785D01*
X103324173Y-101716607D01*
X103424063Y-101488881D01*
X103485108Y-101247821D01*
X103490790Y-101179249D01*
X103505643Y-101000005D01*
X104494357Y-101000005D01*
X104514890Y-101247812D01*
X104514892Y-101247824D01*
X104575936Y-101488881D01*
X104675826Y-101716606D01*
X104811833Y-101924782D01*
X104811836Y-101924785D01*
X104980256Y-102107738D01*
X105176491Y-102260474D01*
X105395190Y-102378828D01*
X105630386Y-102459571D01*
X105875665Y-102500500D01*
X106124335Y-102500500D01*
X106369614Y-102459571D01*
X106604810Y-102378828D01*
X106823509Y-102260474D01*
X107019744Y-102107738D01*
X107188164Y-101924785D01*
X107324173Y-101716607D01*
X107424063Y-101488881D01*
X107485108Y-101247821D01*
X107490790Y-101179249D01*
X107505643Y-101000005D01*
X107505643Y-100999994D01*
X107485109Y-100752187D01*
X107485107Y-100752175D01*
X107424063Y-100511118D01*
X107324173Y-100283393D01*
X107188166Y-100075217D01*
X107166557Y-100051744D01*
X107019744Y-99892262D01*
X106823509Y-99739526D01*
X106823507Y-99739525D01*
X106823506Y-99739524D01*
X106604811Y-99621172D01*
X106604802Y-99621169D01*
X106369616Y-99540429D01*
X106124335Y-99499500D01*
X105875665Y-99499500D01*
X105630383Y-99540429D01*
X105395197Y-99621169D01*
X105395188Y-99621172D01*
X105176493Y-99739524D01*
X104980257Y-99892261D01*
X104811833Y-100075217D01*
X104675826Y-100283393D01*
X104575936Y-100511118D01*
X104514892Y-100752175D01*
X104514890Y-100752187D01*
X104494357Y-100999994D01*
X104494357Y-101000005D01*
X103505643Y-101000005D01*
X103505643Y-100999994D01*
X103485109Y-100752187D01*
X103485107Y-100752175D01*
X103424063Y-100511118D01*
X103324173Y-100283393D01*
X103188166Y-100075217D01*
X103166557Y-100051744D01*
X103019744Y-99892262D01*
X102823509Y-99739526D01*
X102823507Y-99739525D01*
X102823506Y-99739524D01*
X102604811Y-99621172D01*
X102604802Y-99621169D01*
X102369616Y-99540429D01*
X102124335Y-99499500D01*
X101875665Y-99499500D01*
X101630383Y-99540429D01*
X101395197Y-99621169D01*
X101395188Y-99621172D01*
X101176493Y-99739524D01*
X100980257Y-99892261D01*
X100980256Y-99892262D01*
X100828640Y-100056961D01*
X100811836Y-100075215D01*
X100728309Y-100203063D01*
X100675162Y-100248419D01*
X100605931Y-100257843D01*
X100542595Y-100228341D01*
X100505264Y-100169281D01*
X100500500Y-100135241D01*
X100500500Y-93500003D01*
X104194435Y-93500003D01*
X104214630Y-93679249D01*
X104214631Y-93679254D01*
X104274211Y-93849523D01*
X104353355Y-93975479D01*
X104370184Y-94002262D01*
X104497738Y-94129816D01*
X104650478Y-94225789D01*
X104753986Y-94262008D01*
X104800712Y-94291369D01*
X105034712Y-94525369D01*
X105263181Y-94753837D01*
X105296666Y-94815160D01*
X105299500Y-94841518D01*
X105299500Y-97134083D01*
X105279815Y-97201122D01*
X105227011Y-97246877D01*
X105216456Y-97251124D01*
X105150476Y-97274211D01*
X105150475Y-97274212D01*
X104997737Y-97370184D01*
X104870184Y-97497737D01*
X104774211Y-97650476D01*
X104714631Y-97820745D01*
X104714630Y-97820750D01*
X104694435Y-97999996D01*
X104694435Y-98000003D01*
X104714630Y-98179249D01*
X104714631Y-98179254D01*
X104774211Y-98349523D01*
X104870184Y-98502262D01*
X104997738Y-98629816D01*
X105150478Y-98725789D01*
X105320745Y-98785368D01*
X105320750Y-98785369D01*
X105499996Y-98805565D01*
X105500000Y-98805565D01*
X105500004Y-98805565D01*
X105679249Y-98785369D01*
X105679252Y-98785368D01*
X105679255Y-98785368D01*
X105849522Y-98725789D01*
X106002262Y-98629816D01*
X106129816Y-98502262D01*
X106225789Y-98349522D01*
X106262007Y-98246013D01*
X106291365Y-98199290D01*
X106479056Y-98011599D01*
X106481748Y-98009065D01*
X106528183Y-97967929D01*
X106563417Y-97916883D01*
X106565620Y-97913887D01*
X106603878Y-97865056D01*
X106608037Y-97855813D01*
X106619061Y-97836268D01*
X106624818Y-97827930D01*
X106646810Y-97769939D01*
X106648232Y-97766503D01*
X106673695Y-97709931D01*
X106675522Y-97699959D01*
X106681546Y-97678347D01*
X106685140Y-97668872D01*
X106692613Y-97607324D01*
X106693177Y-97603619D01*
X106696535Y-97585289D01*
X106704358Y-97542606D01*
X106700613Y-97480696D01*
X106700500Y-97476951D01*
X106700500Y-94523047D01*
X106700613Y-94519302D01*
X106704358Y-94457394D01*
X106693175Y-94396371D01*
X106692613Y-94392674D01*
X106690193Y-94372742D01*
X106685140Y-94331128D01*
X106682689Y-94324665D01*
X106681548Y-94321656D01*
X106675521Y-94300034D01*
X106673695Y-94290071D01*
X106673695Y-94290069D01*
X106648224Y-94233476D01*
X106646817Y-94230079D01*
X106624818Y-94172070D01*
X106624816Y-94172068D01*
X106624816Y-94172066D01*
X106619062Y-94163731D01*
X106608034Y-94144177D01*
X106603881Y-94134949D01*
X106603878Y-94134945D01*
X106603878Y-94134944D01*
X106565626Y-94086120D01*
X106563416Y-94083115D01*
X106561011Y-94079631D01*
X106528183Y-94032071D01*
X106481742Y-93990928D01*
X106479048Y-93988392D01*
X105791369Y-93300712D01*
X105762008Y-93253986D01*
X105760432Y-93249482D01*
X105725789Y-93150478D01*
X105709747Y-93124948D01*
X105629815Y-92997737D01*
X105502262Y-92870184D01*
X105349523Y-92774211D01*
X105179254Y-92714631D01*
X105179249Y-92714630D01*
X105000004Y-92694435D01*
X104999996Y-92694435D01*
X104820750Y-92714630D01*
X104820745Y-92714631D01*
X104650476Y-92774211D01*
X104497737Y-92870184D01*
X104370184Y-92997737D01*
X104274211Y-93150476D01*
X104214631Y-93320745D01*
X104214630Y-93320750D01*
X104194435Y-93499996D01*
X104194435Y-93500003D01*
X100500500Y-93500003D01*
X100500500Y-77624500D01*
X100520185Y-77557461D01*
X100572989Y-77511706D01*
X100624500Y-77500500D01*
X116151928Y-77500500D01*
X116218967Y-77520185D01*
G37*
%TD.AperFunction*%
%TD*%
M02*
