%TF.GenerationSoftware,KiCad,Pcbnew,7.0.9*%
%TF.CreationDate,2024-01-16T21:18:43+00:00*%
%TF.ProjectId,egg-timer,6567672d-7469-46d6-9572-2e6b69636164,rev?*%
%TF.SameCoordinates,Original*%
%TF.FileFunction,AssemblyDrawing,Top*%
%FSLAX46Y46*%
G04 Gerber Fmt 4.6, Leading zero omitted, Abs format (unit mm)*
G04 Created by KiCad (PCBNEW 7.0.9) date 2024-01-16 21:18:43*
%MOMM*%
%LPD*%
G01*
G04 APERTURE LIST*
%ADD10C,0.150000*%
%ADD11C,0.080000*%
%ADD12C,0.100000*%
G04 APERTURE END LIST*
D10*
X123780952Y-81904819D02*
X123876190Y-81904819D01*
X123876190Y-81904819D02*
X123971428Y-81952438D01*
X123971428Y-81952438D02*
X124019047Y-82000057D01*
X124019047Y-82000057D02*
X124066666Y-82095295D01*
X124066666Y-82095295D02*
X124114285Y-82285771D01*
X124114285Y-82285771D02*
X124114285Y-82523866D01*
X124114285Y-82523866D02*
X124066666Y-82714342D01*
X124066666Y-82714342D02*
X124019047Y-82809580D01*
X124019047Y-82809580D02*
X123971428Y-82857200D01*
X123971428Y-82857200D02*
X123876190Y-82904819D01*
X123876190Y-82904819D02*
X123780952Y-82904819D01*
X123780952Y-82904819D02*
X123685714Y-82857200D01*
X123685714Y-82857200D02*
X123638095Y-82809580D01*
X123638095Y-82809580D02*
X123590476Y-82714342D01*
X123590476Y-82714342D02*
X123542857Y-82523866D01*
X123542857Y-82523866D02*
X123542857Y-82285771D01*
X123542857Y-82285771D02*
X123590476Y-82095295D01*
X123590476Y-82095295D02*
X123638095Y-82000057D01*
X123638095Y-82000057D02*
X123685714Y-81952438D01*
X123685714Y-81952438D02*
X123780952Y-81904819D01*
X124495238Y-82904819D02*
X124733333Y-82904819D01*
X124733333Y-82904819D02*
X124733333Y-82714342D01*
X124733333Y-82714342D02*
X124638095Y-82666723D01*
X124638095Y-82666723D02*
X124542857Y-82571485D01*
X124542857Y-82571485D02*
X124495238Y-82428628D01*
X124495238Y-82428628D02*
X124495238Y-82190533D01*
X124495238Y-82190533D02*
X124542857Y-82047676D01*
X124542857Y-82047676D02*
X124638095Y-81952438D01*
X124638095Y-81952438D02*
X124780952Y-81904819D01*
X124780952Y-81904819D02*
X124971428Y-81904819D01*
X124971428Y-81904819D02*
X125114285Y-81952438D01*
X125114285Y-81952438D02*
X125209523Y-82047676D01*
X125209523Y-82047676D02*
X125257142Y-82190533D01*
X125257142Y-82190533D02*
X125257142Y-82428628D01*
X125257142Y-82428628D02*
X125209523Y-82571485D01*
X125209523Y-82571485D02*
X125114285Y-82666723D01*
X125114285Y-82666723D02*
X125019047Y-82714342D01*
X125019047Y-82714342D02*
X125019047Y-82904819D01*
X125019047Y-82904819D02*
X125257142Y-82904819D01*
D11*
X124316666Y-84327149D02*
X124150000Y-84089054D01*
X124030952Y-84327149D02*
X124030952Y-83827149D01*
X124030952Y-83827149D02*
X124221428Y-83827149D01*
X124221428Y-83827149D02*
X124269047Y-83850959D01*
X124269047Y-83850959D02*
X124292857Y-83874768D01*
X124292857Y-83874768D02*
X124316666Y-83922387D01*
X124316666Y-83922387D02*
X124316666Y-83993816D01*
X124316666Y-83993816D02*
X124292857Y-84041435D01*
X124292857Y-84041435D02*
X124269047Y-84065244D01*
X124269047Y-84065244D02*
X124221428Y-84089054D01*
X124221428Y-84089054D02*
X124030952Y-84089054D01*
X124769047Y-83827149D02*
X124530952Y-83827149D01*
X124530952Y-83827149D02*
X124507143Y-84065244D01*
X124507143Y-84065244D02*
X124530952Y-84041435D01*
X124530952Y-84041435D02*
X124578571Y-84017625D01*
X124578571Y-84017625D02*
X124697619Y-84017625D01*
X124697619Y-84017625D02*
X124745238Y-84041435D01*
X124745238Y-84041435D02*
X124769047Y-84065244D01*
X124769047Y-84065244D02*
X124792857Y-84112863D01*
X124792857Y-84112863D02*
X124792857Y-84231911D01*
X124792857Y-84231911D02*
X124769047Y-84279530D01*
X124769047Y-84279530D02*
X124745238Y-84303340D01*
X124745238Y-84303340D02*
X124697619Y-84327149D01*
X124697619Y-84327149D02*
X124578571Y-84327149D01*
X124578571Y-84327149D02*
X124530952Y-84303340D01*
X124530952Y-84303340D02*
X124507143Y-84279530D01*
D10*
X131261904Y-83919580D02*
X131214285Y-83967200D01*
X131214285Y-83967200D02*
X131071428Y-84014819D01*
X131071428Y-84014819D02*
X130976190Y-84014819D01*
X130976190Y-84014819D02*
X130833333Y-83967200D01*
X130833333Y-83967200D02*
X130738095Y-83871961D01*
X130738095Y-83871961D02*
X130690476Y-83776723D01*
X130690476Y-83776723D02*
X130642857Y-83586247D01*
X130642857Y-83586247D02*
X130642857Y-83443390D01*
X130642857Y-83443390D02*
X130690476Y-83252914D01*
X130690476Y-83252914D02*
X130738095Y-83157676D01*
X130738095Y-83157676D02*
X130833333Y-83062438D01*
X130833333Y-83062438D02*
X130976190Y-83014819D01*
X130976190Y-83014819D02*
X131071428Y-83014819D01*
X131071428Y-83014819D02*
X131214285Y-83062438D01*
X131214285Y-83062438D02*
X131261904Y-83110057D01*
X131833333Y-84014819D02*
X131738095Y-83967200D01*
X131738095Y-83967200D02*
X131690476Y-83919580D01*
X131690476Y-83919580D02*
X131642857Y-83824342D01*
X131642857Y-83824342D02*
X131642857Y-83538628D01*
X131642857Y-83538628D02*
X131690476Y-83443390D01*
X131690476Y-83443390D02*
X131738095Y-83395771D01*
X131738095Y-83395771D02*
X131833333Y-83348152D01*
X131833333Y-83348152D02*
X131976190Y-83348152D01*
X131976190Y-83348152D02*
X132071428Y-83395771D01*
X132071428Y-83395771D02*
X132119047Y-83443390D01*
X132119047Y-83443390D02*
X132166666Y-83538628D01*
X132166666Y-83538628D02*
X132166666Y-83824342D01*
X132166666Y-83824342D02*
X132119047Y-83919580D01*
X132119047Y-83919580D02*
X132071428Y-83967200D01*
X132071428Y-83967200D02*
X131976190Y-84014819D01*
X131976190Y-84014819D02*
X131833333Y-84014819D01*
X132595238Y-83348152D02*
X132595238Y-84014819D01*
X132595238Y-83443390D02*
X132642857Y-83395771D01*
X132642857Y-83395771D02*
X132738095Y-83348152D01*
X132738095Y-83348152D02*
X132880952Y-83348152D01*
X132880952Y-83348152D02*
X132976190Y-83395771D01*
X132976190Y-83395771D02*
X133023809Y-83491009D01*
X133023809Y-83491009D02*
X133023809Y-84014819D01*
X133500000Y-83348152D02*
X133500000Y-84014819D01*
X133500000Y-83443390D02*
X133547619Y-83395771D01*
X133547619Y-83395771D02*
X133642857Y-83348152D01*
X133642857Y-83348152D02*
X133785714Y-83348152D01*
X133785714Y-83348152D02*
X133880952Y-83395771D01*
X133880952Y-83395771D02*
X133928571Y-83491009D01*
X133928571Y-83491009D02*
X133928571Y-84014819D01*
X134166667Y-84110057D02*
X134928571Y-84110057D01*
X135357143Y-83014819D02*
X135452381Y-83014819D01*
X135452381Y-83014819D02*
X135547619Y-83062438D01*
X135547619Y-83062438D02*
X135595238Y-83110057D01*
X135595238Y-83110057D02*
X135642857Y-83205295D01*
X135642857Y-83205295D02*
X135690476Y-83395771D01*
X135690476Y-83395771D02*
X135690476Y-83633866D01*
X135690476Y-83633866D02*
X135642857Y-83824342D01*
X135642857Y-83824342D02*
X135595238Y-83919580D01*
X135595238Y-83919580D02*
X135547619Y-83967200D01*
X135547619Y-83967200D02*
X135452381Y-84014819D01*
X135452381Y-84014819D02*
X135357143Y-84014819D01*
X135357143Y-84014819D02*
X135261905Y-83967200D01*
X135261905Y-83967200D02*
X135214286Y-83919580D01*
X135214286Y-83919580D02*
X135166667Y-83824342D01*
X135166667Y-83824342D02*
X135119048Y-83633866D01*
X135119048Y-83633866D02*
X135119048Y-83395771D01*
X135119048Y-83395771D02*
X135166667Y-83205295D01*
X135166667Y-83205295D02*
X135214286Y-83110057D01*
X135214286Y-83110057D02*
X135261905Y-83062438D01*
X135261905Y-83062438D02*
X135357143Y-83014819D01*
X136642857Y-84014819D02*
X136071429Y-84014819D01*
X136357143Y-84014819D02*
X136357143Y-83014819D01*
X136357143Y-83014819D02*
X136261905Y-83157676D01*
X136261905Y-83157676D02*
X136166667Y-83252914D01*
X136166667Y-83252914D02*
X136071429Y-83300533D01*
X136976191Y-84014819D02*
X137500000Y-83348152D01*
X136976191Y-83348152D02*
X137500000Y-84014819D01*
X138071429Y-83014819D02*
X138166667Y-83014819D01*
X138166667Y-83014819D02*
X138261905Y-83062438D01*
X138261905Y-83062438D02*
X138309524Y-83110057D01*
X138309524Y-83110057D02*
X138357143Y-83205295D01*
X138357143Y-83205295D02*
X138404762Y-83395771D01*
X138404762Y-83395771D02*
X138404762Y-83633866D01*
X138404762Y-83633866D02*
X138357143Y-83824342D01*
X138357143Y-83824342D02*
X138309524Y-83919580D01*
X138309524Y-83919580D02*
X138261905Y-83967200D01*
X138261905Y-83967200D02*
X138166667Y-84014819D01*
X138166667Y-84014819D02*
X138071429Y-84014819D01*
X138071429Y-84014819D02*
X137976191Y-83967200D01*
X137976191Y-83967200D02*
X137928572Y-83919580D01*
X137928572Y-83919580D02*
X137880953Y-83824342D01*
X137880953Y-83824342D02*
X137833334Y-83633866D01*
X137833334Y-83633866D02*
X137833334Y-83395771D01*
X137833334Y-83395771D02*
X137880953Y-83205295D01*
X137880953Y-83205295D02*
X137928572Y-83110057D01*
X137928572Y-83110057D02*
X137976191Y-83062438D01*
X137976191Y-83062438D02*
X138071429Y-83014819D01*
X139357143Y-84014819D02*
X138785715Y-84014819D01*
X139071429Y-84014819D02*
X139071429Y-83014819D01*
X139071429Y-83014819D02*
X138976191Y-83157676D01*
X138976191Y-83157676D02*
X138880953Y-83252914D01*
X138880953Y-83252914D02*
X138785715Y-83300533D01*
X142904761Y-96214819D02*
X142571428Y-95738628D01*
X142333333Y-96214819D02*
X142333333Y-95214819D01*
X142333333Y-95214819D02*
X142714285Y-95214819D01*
X142714285Y-95214819D02*
X142809523Y-95262438D01*
X142809523Y-95262438D02*
X142857142Y-95310057D01*
X142857142Y-95310057D02*
X142904761Y-95405295D01*
X142904761Y-95405295D02*
X142904761Y-95548152D01*
X142904761Y-95548152D02*
X142857142Y-95643390D01*
X142857142Y-95643390D02*
X142809523Y-95691009D01*
X142809523Y-95691009D02*
X142714285Y-95738628D01*
X142714285Y-95738628D02*
X142333333Y-95738628D01*
X143190476Y-95214819D02*
X143523809Y-96214819D01*
X143523809Y-96214819D02*
X143857142Y-95214819D01*
X144714285Y-96214819D02*
X144142857Y-96214819D01*
X144428571Y-96214819D02*
X144428571Y-95214819D01*
X144428571Y-95214819D02*
X144333333Y-95357676D01*
X144333333Y-95357676D02*
X144238095Y-95452914D01*
X144238095Y-95452914D02*
X144142857Y-95500533D01*
X122583333Y-94454819D02*
X122583333Y-93454819D01*
X122583333Y-93835771D02*
X122678571Y-93788152D01*
X122678571Y-93788152D02*
X122869047Y-93788152D01*
X122869047Y-93788152D02*
X122964285Y-93835771D01*
X122964285Y-93835771D02*
X123011904Y-93883390D01*
X123011904Y-93883390D02*
X123059523Y-93978628D01*
X123059523Y-93978628D02*
X123059523Y-94264342D01*
X123059523Y-94264342D02*
X123011904Y-94359580D01*
X123011904Y-94359580D02*
X122964285Y-94407200D01*
X122964285Y-94407200D02*
X122869047Y-94454819D01*
X122869047Y-94454819D02*
X122678571Y-94454819D01*
X122678571Y-94454819D02*
X122583333Y-94407200D01*
X123916666Y-94454819D02*
X123916666Y-93931009D01*
X123916666Y-93931009D02*
X123869047Y-93835771D01*
X123869047Y-93835771D02*
X123773809Y-93788152D01*
X123773809Y-93788152D02*
X123583333Y-93788152D01*
X123583333Y-93788152D02*
X123488095Y-93835771D01*
X123916666Y-94407200D02*
X123821428Y-94454819D01*
X123821428Y-94454819D02*
X123583333Y-94454819D01*
X123583333Y-94454819D02*
X123488095Y-94407200D01*
X123488095Y-94407200D02*
X123440476Y-94311961D01*
X123440476Y-94311961D02*
X123440476Y-94216723D01*
X123440476Y-94216723D02*
X123488095Y-94121485D01*
X123488095Y-94121485D02*
X123583333Y-94073866D01*
X123583333Y-94073866D02*
X123821428Y-94073866D01*
X123821428Y-94073866D02*
X123916666Y-94026247D01*
X124392857Y-94454819D02*
X124392857Y-93788152D01*
X124392857Y-93978628D02*
X124440476Y-93883390D01*
X124440476Y-93883390D02*
X124488095Y-93835771D01*
X124488095Y-93835771D02*
X124583333Y-93788152D01*
X124583333Y-93788152D02*
X124678571Y-93788152D01*
X125392857Y-94407200D02*
X125297619Y-94454819D01*
X125297619Y-94454819D02*
X125107143Y-94454819D01*
X125107143Y-94454819D02*
X125011905Y-94407200D01*
X125011905Y-94407200D02*
X124964286Y-94311961D01*
X124964286Y-94311961D02*
X124964286Y-93931009D01*
X124964286Y-93931009D02*
X125011905Y-93835771D01*
X125011905Y-93835771D02*
X125107143Y-93788152D01*
X125107143Y-93788152D02*
X125297619Y-93788152D01*
X125297619Y-93788152D02*
X125392857Y-93835771D01*
X125392857Y-93835771D02*
X125440476Y-93931009D01*
X125440476Y-93931009D02*
X125440476Y-94026247D01*
X125440476Y-94026247D02*
X124964286Y-94121485D01*
X125869048Y-94073866D02*
X126630953Y-94073866D01*
X127250000Y-94454819D02*
X127154762Y-94407200D01*
X127154762Y-94407200D02*
X127107143Y-94311961D01*
X127107143Y-94311961D02*
X127107143Y-93454819D01*
X128059524Y-94407200D02*
X127964286Y-94454819D01*
X127964286Y-94454819D02*
X127773810Y-94454819D01*
X127773810Y-94454819D02*
X127678572Y-94407200D01*
X127678572Y-94407200D02*
X127630953Y-94359580D01*
X127630953Y-94359580D02*
X127583334Y-94264342D01*
X127583334Y-94264342D02*
X127583334Y-93978628D01*
X127583334Y-93978628D02*
X127630953Y-93883390D01*
X127630953Y-93883390D02*
X127678572Y-93835771D01*
X127678572Y-93835771D02*
X127773810Y-93788152D01*
X127773810Y-93788152D02*
X127964286Y-93788152D01*
X127964286Y-93788152D02*
X128059524Y-93835771D01*
X128916667Y-94454819D02*
X128916667Y-93454819D01*
X128916667Y-94407200D02*
X128821429Y-94454819D01*
X128821429Y-94454819D02*
X128630953Y-94454819D01*
X128630953Y-94454819D02*
X128535715Y-94407200D01*
X128535715Y-94407200D02*
X128488096Y-94359580D01*
X128488096Y-94359580D02*
X128440477Y-94264342D01*
X128440477Y-94264342D02*
X128440477Y-93978628D01*
X128440477Y-93978628D02*
X128488096Y-93883390D01*
X128488096Y-93883390D02*
X128535715Y-93835771D01*
X128535715Y-93835771D02*
X128630953Y-93788152D01*
X128630953Y-93788152D02*
X128821429Y-93788152D01*
X128821429Y-93788152D02*
X128916667Y-93835771D01*
X136454819Y-87833333D02*
X137169104Y-87833333D01*
X137169104Y-87833333D02*
X137311961Y-87880952D01*
X137311961Y-87880952D02*
X137407200Y-87976190D01*
X137407200Y-87976190D02*
X137454819Y-88119047D01*
X137454819Y-88119047D02*
X137454819Y-88214285D01*
X136550057Y-87404761D02*
X136502438Y-87357142D01*
X136502438Y-87357142D02*
X136454819Y-87261904D01*
X136454819Y-87261904D02*
X136454819Y-87023809D01*
X136454819Y-87023809D02*
X136502438Y-86928571D01*
X136502438Y-86928571D02*
X136550057Y-86880952D01*
X136550057Y-86880952D02*
X136645295Y-86833333D01*
X136645295Y-86833333D02*
X136740533Y-86833333D01*
X136740533Y-86833333D02*
X136883390Y-86880952D01*
X136883390Y-86880952D02*
X137454819Y-87452380D01*
X137454819Y-87452380D02*
X137454819Y-86833333D01*
X136454819Y-91833333D02*
X137169104Y-91833333D01*
X137169104Y-91833333D02*
X137311961Y-91880952D01*
X137311961Y-91880952D02*
X137407200Y-91976190D01*
X137407200Y-91976190D02*
X137454819Y-92119047D01*
X137454819Y-92119047D02*
X137454819Y-92214285D01*
X136454819Y-91452380D02*
X136454819Y-90833333D01*
X136454819Y-90833333D02*
X136835771Y-91166666D01*
X136835771Y-91166666D02*
X136835771Y-91023809D01*
X136835771Y-91023809D02*
X136883390Y-90928571D01*
X136883390Y-90928571D02*
X136931009Y-90880952D01*
X136931009Y-90880952D02*
X137026247Y-90833333D01*
X137026247Y-90833333D02*
X137264342Y-90833333D01*
X137264342Y-90833333D02*
X137359580Y-90880952D01*
X137359580Y-90880952D02*
X137407200Y-90928571D01*
X137407200Y-90928571D02*
X137454819Y-91023809D01*
X137454819Y-91023809D02*
X137454819Y-91309523D01*
X137454819Y-91309523D02*
X137407200Y-91404761D01*
X137407200Y-91404761D02*
X137359580Y-91452380D01*
X106166666Y-79454819D02*
X106166666Y-80169104D01*
X106166666Y-80169104D02*
X106119047Y-80311961D01*
X106119047Y-80311961D02*
X106023809Y-80407200D01*
X106023809Y-80407200D02*
X105880952Y-80454819D01*
X105880952Y-80454819D02*
X105785714Y-80454819D01*
X107166666Y-80454819D02*
X106595238Y-80454819D01*
X106880952Y-80454819D02*
X106880952Y-79454819D01*
X106880952Y-79454819D02*
X106785714Y-79597676D01*
X106785714Y-79597676D02*
X106690476Y-79692914D01*
X106690476Y-79692914D02*
X106595238Y-79740533D01*
D12*
%TO.C,R5*%
X125400000Y-84725000D02*
X123400000Y-84725000D01*
X125400000Y-83475000D02*
X125400000Y-84725000D01*
X123400000Y-84725000D02*
X123400000Y-83475000D01*
X123400000Y-83475000D02*
X125400000Y-83475000D01*
%TO.C,J5*%
X134000000Y-81000000D02*
X134500000Y-80500000D01*
X134000000Y-82500000D02*
X134000000Y-81000000D01*
X134500000Y-80500000D02*
X136000000Y-80500000D01*
X136000000Y-80500000D02*
X136000000Y-82500000D01*
X136000000Y-82500000D02*
X134000000Y-82500000D01*
%TO.C,RV1*%
X140300000Y-97760000D02*
X140300000Y-92160000D01*
X140400000Y-91960000D02*
X141600000Y-91960000D01*
X140400000Y-92160000D02*
X140400000Y-91960000D01*
X141500000Y-98960000D02*
X145500000Y-98960000D01*
X141600000Y-91960000D02*
X141600000Y-92160000D01*
X145400000Y-91960000D02*
X145400000Y-92160000D01*
X146600000Y-91960000D02*
X145410000Y-91960000D01*
X146600000Y-92160000D02*
X146600000Y-91960000D01*
X146700000Y-92160000D02*
X140300000Y-92160000D01*
X146700000Y-97760000D02*
X146700000Y-92160000D01*
X140300000Y-97760000D02*
G75*
G03*
X141500000Y-98960000I1200000J0D01*
G01*
X145500000Y-98960000D02*
G75*
G03*
X146700000Y-97760000I0J1200000D01*
G01*
X146500000Y-95760000D02*
G75*
G03*
X146500000Y-95760000I-3000000J0D01*
G01*
%TO.C,J4*%
X109000000Y-82500000D02*
X109500000Y-82000000D01*
X109000000Y-84000000D02*
X109000000Y-82500000D01*
X109500000Y-82000000D02*
X111000000Y-82000000D01*
X111000000Y-82000000D02*
X111000000Y-84000000D01*
X111000000Y-84000000D02*
X109000000Y-84000000D01*
%TO.C,J2*%
X136000000Y-87000000D02*
X136500000Y-86500000D01*
X136000000Y-88500000D02*
X136000000Y-87000000D01*
X136500000Y-86500000D02*
X138000000Y-86500000D01*
X138000000Y-86500000D02*
X138000000Y-88500000D01*
X138000000Y-88500000D02*
X136000000Y-88500000D01*
%TO.C,J3*%
X136000000Y-91000000D02*
X136500000Y-90500000D01*
X136000000Y-92500000D02*
X136000000Y-91000000D01*
X136500000Y-90500000D02*
X138000000Y-90500000D01*
X138000000Y-90500000D02*
X138000000Y-92500000D01*
X138000000Y-92500000D02*
X136000000Y-92500000D01*
%TO.C,J1*%
X102000000Y-81000000D02*
X101500000Y-80500000D01*
X111500000Y-81000000D02*
X102000000Y-81000000D01*
X101500000Y-80500000D02*
X101500000Y-79000000D01*
X101500000Y-79000000D02*
X111500000Y-79000000D01*
X111500000Y-79000000D02*
X111500000Y-81000000D01*
%TD*%
M02*
