%TF.GenerationSoftware,KiCad,Pcbnew,7.0.9*%
%TF.CreationDate,2024-01-16T21:18:43+00:00*%
%TF.ProjectId,egg-timer,6567672d-7469-46d6-9572-2e6b69636164,rev?*%
%TF.SameCoordinates,Original*%
%TF.FileFunction,Other,User*%
%FSLAX46Y46*%
G04 Gerber Fmt 4.6, Leading zero omitted, Abs format (unit mm)*
G04 Created by KiCad (PCBNEW 7.0.9) date 2024-01-16 21:18:43*
%MOMM*%
%LPD*%
G01*
G04 APERTURE LIST*
%ADD10C,0.050000*%
G04 APERTURE END LIST*
D10*
%TO.C,R2*%
X135350000Y-79450000D02*
X135350000Y-77550000D01*
X135350000Y-77550000D02*
X131650000Y-77550000D01*
X131650000Y-79450000D02*
X135350000Y-79450000D01*
X131650000Y-77550000D02*
X131650000Y-79450000D01*
%TO.C,C3*%
X109582500Y-98020000D02*
X109582500Y-99980000D01*
X109582500Y-99980000D02*
X113342500Y-99980000D01*
X113342500Y-98020000D02*
X109582500Y-98020000D01*
X113342500Y-99980000D02*
X113342500Y-98020000D01*
%TO.C,R3*%
X108150000Y-86050000D02*
X108150000Y-87950000D01*
X108150000Y-87950000D02*
X111850000Y-87950000D01*
X111850000Y-86050000D02*
X108150000Y-86050000D01*
X111850000Y-87950000D02*
X111850000Y-86050000D01*
%TO.C,R1*%
X133150000Y-83050000D02*
X133150000Y-84950000D01*
X133150000Y-84950000D02*
X136850000Y-84950000D01*
X136850000Y-83050000D02*
X133150000Y-83050000D01*
X136850000Y-84950000D02*
X136850000Y-83050000D01*
%TO.C,C4*%
X109620000Y-95020000D02*
X109620000Y-96980000D01*
X109620000Y-96980000D02*
X113380000Y-96980000D01*
X113380000Y-95020000D02*
X109620000Y-95020000D01*
X113380000Y-96980000D02*
X113380000Y-95020000D01*
%TO.C,C1*%
X103082500Y-86020000D02*
X103082500Y-87980000D01*
X103082500Y-87980000D02*
X106842500Y-87980000D01*
X106842500Y-86020000D02*
X103082500Y-86020000D01*
X106842500Y-87980000D02*
X106842500Y-86020000D01*
%TO.C,U5*%
X123815000Y-78750000D02*
X123815000Y-88250000D01*
X117915000Y-78750000D02*
X123815000Y-78750000D01*
X117915000Y-78750000D02*
X117915000Y-88250000D01*
X117915000Y-88250000D02*
X123815000Y-88250000D01*
%TO.C,U1*%
X130950000Y-94600000D02*
X130950000Y-69300000D01*
X130950000Y-69300000D02*
X112850000Y-69300000D01*
X112850000Y-94600000D02*
X130950000Y-94600000D01*
X112850000Y-69300000D02*
X112850000Y-94600000D01*
%TO.C,U4*%
X100450000Y-92100000D02*
X109250000Y-92100000D01*
X100450000Y-99300000D02*
X100450000Y-92100000D01*
X109250000Y-92100000D02*
X109250000Y-99300000D01*
X109250000Y-99300000D02*
X100450000Y-99300000D01*
%TO.C,C2*%
X103082500Y-89020000D02*
X103082500Y-90980000D01*
X103082500Y-90980000D02*
X106842500Y-90980000D01*
X106842500Y-89020000D02*
X103082500Y-89020000D01*
X106842500Y-90980000D02*
X106842500Y-89020000D01*
%TO.C,BZ1*%
X150850000Y-82000000D02*
G75*
G03*
X150850000Y-82000000I-6250000J0D01*
G01*
%TO.C,R4*%
X108150000Y-88550000D02*
X108150000Y-90450000D01*
X108150000Y-90450000D02*
X111850000Y-90450000D01*
X111850000Y-88550000D02*
X108150000Y-88550000D01*
X111850000Y-90450000D02*
X111850000Y-88550000D01*
%TO.C,U2*%
X133935000Y-103570000D02*
X133935000Y-115430000D01*
X118035000Y-103570000D02*
X133935000Y-103570000D01*
X133935000Y-115430000D02*
X118035000Y-115430000D01*
X118035000Y-115430000D02*
X118035000Y-103570000D01*
%TD*%
M02*
