%TF.GenerationSoftware,KiCad,Pcbnew,7.0.9*%
%TF.CreationDate,2024-01-16T21:18:43+00:00*%
%TF.ProjectId,egg-timer,6567672d-7469-46d6-9572-2e6b69636164,rev?*%
%TF.SameCoordinates,Original*%
%TF.FileFunction,Legend,Top*%
%TF.FilePolarity,Positive*%
%FSLAX46Y46*%
G04 Gerber Fmt 4.6, Leading zero omitted, Abs format (unit mm)*
G04 Created by KiCad (PCBNEW 7.0.9) date 2024-01-16 21:18:43*
%MOMM*%
%LPD*%
G01*
G04 APERTURE LIST*
%ADD10C,0.152400*%
%ADD11C,0.150000*%
%ADD12C,0.400000*%
%ADD13C,0.120000*%
G04 APERTURE END LIST*
D10*
X137255082Y-117853899D02*
X137371196Y-117892603D01*
X137371196Y-117892603D02*
X137564720Y-117892603D01*
X137564720Y-117892603D02*
X137642129Y-117853899D01*
X137642129Y-117853899D02*
X137680834Y-117815194D01*
X137680834Y-117815194D02*
X137719539Y-117737784D01*
X137719539Y-117737784D02*
X137719539Y-117660375D01*
X137719539Y-117660375D02*
X137680834Y-117582965D01*
X137680834Y-117582965D02*
X137642129Y-117544260D01*
X137642129Y-117544260D02*
X137564720Y-117505556D01*
X137564720Y-117505556D02*
X137409901Y-117466851D01*
X137409901Y-117466851D02*
X137332491Y-117428146D01*
X137332491Y-117428146D02*
X137293786Y-117389441D01*
X137293786Y-117389441D02*
X137255082Y-117312032D01*
X137255082Y-117312032D02*
X137255082Y-117234622D01*
X137255082Y-117234622D02*
X137293786Y-117157213D01*
X137293786Y-117157213D02*
X137332491Y-117118508D01*
X137332491Y-117118508D02*
X137409901Y-117079803D01*
X137409901Y-117079803D02*
X137603424Y-117079803D01*
X137603424Y-117079803D02*
X137719539Y-117118508D01*
X137990472Y-117079803D02*
X138183996Y-117892603D01*
X138183996Y-117892603D02*
X138338815Y-117312032D01*
X138338815Y-117312032D02*
X138493634Y-117892603D01*
X138493634Y-117892603D02*
X138687158Y-117079803D01*
X138919386Y-117079803D02*
X139422548Y-117079803D01*
X139422548Y-117079803D02*
X139151614Y-117389441D01*
X139151614Y-117389441D02*
X139267729Y-117389441D01*
X139267729Y-117389441D02*
X139345138Y-117428146D01*
X139345138Y-117428146D02*
X139383843Y-117466851D01*
X139383843Y-117466851D02*
X139422548Y-117544260D01*
X139422548Y-117544260D02*
X139422548Y-117737784D01*
X139422548Y-117737784D02*
X139383843Y-117815194D01*
X139383843Y-117815194D02*
X139345138Y-117853899D01*
X139345138Y-117853899D02*
X139267729Y-117892603D01*
X139267729Y-117892603D02*
X139035500Y-117892603D01*
X139035500Y-117892603D02*
X138958091Y-117853899D01*
X138958091Y-117853899D02*
X138919386Y-117815194D01*
X104719539Y-78018508D02*
X104642129Y-77979803D01*
X104642129Y-77979803D02*
X104526015Y-77979803D01*
X104526015Y-77979803D02*
X104409901Y-78018508D01*
X104409901Y-78018508D02*
X104332491Y-78095918D01*
X104332491Y-78095918D02*
X104293786Y-78173327D01*
X104293786Y-78173327D02*
X104255082Y-78328146D01*
X104255082Y-78328146D02*
X104255082Y-78444260D01*
X104255082Y-78444260D02*
X104293786Y-78599079D01*
X104293786Y-78599079D02*
X104332491Y-78676489D01*
X104332491Y-78676489D02*
X104409901Y-78753899D01*
X104409901Y-78753899D02*
X104526015Y-78792603D01*
X104526015Y-78792603D02*
X104603424Y-78792603D01*
X104603424Y-78792603D02*
X104719539Y-78753899D01*
X104719539Y-78753899D02*
X104758243Y-78715194D01*
X104758243Y-78715194D02*
X104758243Y-78444260D01*
X104758243Y-78444260D02*
X104603424Y-78444260D01*
X107823786Y-78792603D02*
X107823786Y-77979803D01*
X107823786Y-77979803D02*
X108133424Y-77979803D01*
X108133424Y-77979803D02*
X108210834Y-78018508D01*
X108210834Y-78018508D02*
X108249539Y-78057213D01*
X108249539Y-78057213D02*
X108288243Y-78134622D01*
X108288243Y-78134622D02*
X108288243Y-78250737D01*
X108288243Y-78250737D02*
X108249539Y-78328146D01*
X108249539Y-78328146D02*
X108210834Y-78366851D01*
X108210834Y-78366851D02*
X108133424Y-78405556D01*
X108133424Y-78405556D02*
X107823786Y-78405556D01*
X108907520Y-78366851D02*
X109023634Y-78405556D01*
X109023634Y-78405556D02*
X109062339Y-78444260D01*
X109062339Y-78444260D02*
X109101043Y-78521670D01*
X109101043Y-78521670D02*
X109101043Y-78637784D01*
X109101043Y-78637784D02*
X109062339Y-78715194D01*
X109062339Y-78715194D02*
X109023634Y-78753899D01*
X109023634Y-78753899D02*
X108946224Y-78792603D01*
X108946224Y-78792603D02*
X108636586Y-78792603D01*
X108636586Y-78792603D02*
X108636586Y-77979803D01*
X108636586Y-77979803D02*
X108907520Y-77979803D01*
X108907520Y-77979803D02*
X108984929Y-78018508D01*
X108984929Y-78018508D02*
X109023634Y-78057213D01*
X109023634Y-78057213D02*
X109062339Y-78134622D01*
X109062339Y-78134622D02*
X109062339Y-78212032D01*
X109062339Y-78212032D02*
X109023634Y-78289441D01*
X109023634Y-78289441D02*
X108984929Y-78328146D01*
X108984929Y-78328146D02*
X108907520Y-78366851D01*
X108907520Y-78366851D02*
X108636586Y-78366851D01*
X109875139Y-78792603D02*
X109410682Y-78792603D01*
X109642910Y-78792603D02*
X109642910Y-77979803D01*
X109642910Y-77979803D02*
X109565501Y-78095918D01*
X109565501Y-78095918D02*
X109488091Y-78173327D01*
X109488091Y-78173327D02*
X109410682Y-78212032D01*
X105293786Y-78792603D02*
X105293786Y-77979803D01*
X105293786Y-77979803D02*
X105603424Y-77979803D01*
X105603424Y-77979803D02*
X105680834Y-78018508D01*
X105680834Y-78018508D02*
X105719539Y-78057213D01*
X105719539Y-78057213D02*
X105758243Y-78134622D01*
X105758243Y-78134622D02*
X105758243Y-78250737D01*
X105758243Y-78250737D02*
X105719539Y-78328146D01*
X105719539Y-78328146D02*
X105680834Y-78366851D01*
X105680834Y-78366851D02*
X105603424Y-78405556D01*
X105603424Y-78405556D02*
X105293786Y-78405556D01*
X106377520Y-78366851D02*
X106493634Y-78405556D01*
X106493634Y-78405556D02*
X106532339Y-78444260D01*
X106532339Y-78444260D02*
X106571043Y-78521670D01*
X106571043Y-78521670D02*
X106571043Y-78637784D01*
X106571043Y-78637784D02*
X106532339Y-78715194D01*
X106532339Y-78715194D02*
X106493634Y-78753899D01*
X106493634Y-78753899D02*
X106416224Y-78792603D01*
X106416224Y-78792603D02*
X106106586Y-78792603D01*
X106106586Y-78792603D02*
X106106586Y-77979803D01*
X106106586Y-77979803D02*
X106377520Y-77979803D01*
X106377520Y-77979803D02*
X106454929Y-78018508D01*
X106454929Y-78018508D02*
X106493634Y-78057213D01*
X106493634Y-78057213D02*
X106532339Y-78134622D01*
X106532339Y-78134622D02*
X106532339Y-78212032D01*
X106532339Y-78212032D02*
X106493634Y-78289441D01*
X106493634Y-78289441D02*
X106454929Y-78328146D01*
X106454929Y-78328146D02*
X106377520Y-78366851D01*
X106377520Y-78366851D02*
X106106586Y-78366851D01*
X106880682Y-78057213D02*
X106919386Y-78018508D01*
X106919386Y-78018508D02*
X106996796Y-77979803D01*
X106996796Y-77979803D02*
X107190320Y-77979803D01*
X107190320Y-77979803D02*
X107267729Y-78018508D01*
X107267729Y-78018508D02*
X107306434Y-78057213D01*
X107306434Y-78057213D02*
X107345139Y-78134622D01*
X107345139Y-78134622D02*
X107345139Y-78212032D01*
X107345139Y-78212032D02*
X107306434Y-78328146D01*
X107306434Y-78328146D02*
X106841977Y-78792603D01*
X106841977Y-78792603D02*
X107345139Y-78792603D01*
X110293786Y-78792603D02*
X110293786Y-77979803D01*
X110293786Y-77979803D02*
X110603424Y-77979803D01*
X110603424Y-77979803D02*
X110680834Y-78018508D01*
X110680834Y-78018508D02*
X110719539Y-78057213D01*
X110719539Y-78057213D02*
X110758243Y-78134622D01*
X110758243Y-78134622D02*
X110758243Y-78250737D01*
X110758243Y-78250737D02*
X110719539Y-78328146D01*
X110719539Y-78328146D02*
X110680834Y-78366851D01*
X110680834Y-78366851D02*
X110603424Y-78405556D01*
X110603424Y-78405556D02*
X110293786Y-78405556D01*
X111377520Y-78366851D02*
X111493634Y-78405556D01*
X111493634Y-78405556D02*
X111532339Y-78444260D01*
X111532339Y-78444260D02*
X111571043Y-78521670D01*
X111571043Y-78521670D02*
X111571043Y-78637784D01*
X111571043Y-78637784D02*
X111532339Y-78715194D01*
X111532339Y-78715194D02*
X111493634Y-78753899D01*
X111493634Y-78753899D02*
X111416224Y-78792603D01*
X111416224Y-78792603D02*
X111106586Y-78792603D01*
X111106586Y-78792603D02*
X111106586Y-77979803D01*
X111106586Y-77979803D02*
X111377520Y-77979803D01*
X111377520Y-77979803D02*
X111454929Y-78018508D01*
X111454929Y-78018508D02*
X111493634Y-78057213D01*
X111493634Y-78057213D02*
X111532339Y-78134622D01*
X111532339Y-78134622D02*
X111532339Y-78212032D01*
X111532339Y-78212032D02*
X111493634Y-78289441D01*
X111493634Y-78289441D02*
X111454929Y-78328146D01*
X111454929Y-78328146D02*
X111377520Y-78366851D01*
X111377520Y-78366851D02*
X111106586Y-78366851D01*
X112074205Y-77979803D02*
X112151615Y-77979803D01*
X112151615Y-77979803D02*
X112229024Y-78018508D01*
X112229024Y-78018508D02*
X112267729Y-78057213D01*
X112267729Y-78057213D02*
X112306434Y-78134622D01*
X112306434Y-78134622D02*
X112345139Y-78289441D01*
X112345139Y-78289441D02*
X112345139Y-78482965D01*
X112345139Y-78482965D02*
X112306434Y-78637784D01*
X112306434Y-78637784D02*
X112267729Y-78715194D01*
X112267729Y-78715194D02*
X112229024Y-78753899D01*
X112229024Y-78753899D02*
X112151615Y-78792603D01*
X112151615Y-78792603D02*
X112074205Y-78792603D01*
X112074205Y-78792603D02*
X111996796Y-78753899D01*
X111996796Y-78753899D02*
X111958091Y-78715194D01*
X111958091Y-78715194D02*
X111919386Y-78637784D01*
X111919386Y-78637784D02*
X111880682Y-78482965D01*
X111880682Y-78482965D02*
X111880682Y-78289441D01*
X111880682Y-78289441D02*
X111919386Y-78134622D01*
X111919386Y-78134622D02*
X111958091Y-78057213D01*
X111958091Y-78057213D02*
X111996796Y-78018508D01*
X111996796Y-78018508D02*
X112074205Y-77979803D01*
X119755082Y-117853899D02*
X119871196Y-117892603D01*
X119871196Y-117892603D02*
X120064720Y-117892603D01*
X120064720Y-117892603D02*
X120142129Y-117853899D01*
X120142129Y-117853899D02*
X120180834Y-117815194D01*
X120180834Y-117815194D02*
X120219539Y-117737784D01*
X120219539Y-117737784D02*
X120219539Y-117660375D01*
X120219539Y-117660375D02*
X120180834Y-117582965D01*
X120180834Y-117582965D02*
X120142129Y-117544260D01*
X120142129Y-117544260D02*
X120064720Y-117505556D01*
X120064720Y-117505556D02*
X119909901Y-117466851D01*
X119909901Y-117466851D02*
X119832491Y-117428146D01*
X119832491Y-117428146D02*
X119793786Y-117389441D01*
X119793786Y-117389441D02*
X119755082Y-117312032D01*
X119755082Y-117312032D02*
X119755082Y-117234622D01*
X119755082Y-117234622D02*
X119793786Y-117157213D01*
X119793786Y-117157213D02*
X119832491Y-117118508D01*
X119832491Y-117118508D02*
X119909901Y-117079803D01*
X119909901Y-117079803D02*
X120103424Y-117079803D01*
X120103424Y-117079803D02*
X120219539Y-117118508D01*
X120490472Y-117079803D02*
X120683996Y-117892603D01*
X120683996Y-117892603D02*
X120838815Y-117312032D01*
X120838815Y-117312032D02*
X120993634Y-117892603D01*
X120993634Y-117892603D02*
X121187158Y-117079803D01*
X121458091Y-117157213D02*
X121496795Y-117118508D01*
X121496795Y-117118508D02*
X121574205Y-117079803D01*
X121574205Y-117079803D02*
X121767729Y-117079803D01*
X121767729Y-117079803D02*
X121845138Y-117118508D01*
X121845138Y-117118508D02*
X121883843Y-117157213D01*
X121883843Y-117157213D02*
X121922548Y-117234622D01*
X121922548Y-117234622D02*
X121922548Y-117312032D01*
X121922548Y-117312032D02*
X121883843Y-117428146D01*
X121883843Y-117428146D02*
X121419386Y-117892603D01*
X121419386Y-117892603D02*
X121922548Y-117892603D01*
X102680834Y-77979803D02*
X102293786Y-77979803D01*
X102293786Y-77979803D02*
X102255082Y-78366851D01*
X102255082Y-78366851D02*
X102293786Y-78328146D01*
X102293786Y-78328146D02*
X102371196Y-78289441D01*
X102371196Y-78289441D02*
X102564720Y-78289441D01*
X102564720Y-78289441D02*
X102642129Y-78328146D01*
X102642129Y-78328146D02*
X102680834Y-78366851D01*
X102680834Y-78366851D02*
X102719539Y-78444260D01*
X102719539Y-78444260D02*
X102719539Y-78637784D01*
X102719539Y-78637784D02*
X102680834Y-78715194D01*
X102680834Y-78715194D02*
X102642129Y-78753899D01*
X102642129Y-78753899D02*
X102564720Y-78792603D01*
X102564720Y-78792603D02*
X102371196Y-78792603D01*
X102371196Y-78792603D02*
X102293786Y-78753899D01*
X102293786Y-78753899D02*
X102255082Y-78715194D01*
X102951767Y-77979803D02*
X103222700Y-78792603D01*
X103222700Y-78792603D02*
X103493634Y-77979803D01*
X101755082Y-117853899D02*
X101871196Y-117892603D01*
X101871196Y-117892603D02*
X102064720Y-117892603D01*
X102064720Y-117892603D02*
X102142129Y-117853899D01*
X102142129Y-117853899D02*
X102180834Y-117815194D01*
X102180834Y-117815194D02*
X102219539Y-117737784D01*
X102219539Y-117737784D02*
X102219539Y-117660375D01*
X102219539Y-117660375D02*
X102180834Y-117582965D01*
X102180834Y-117582965D02*
X102142129Y-117544260D01*
X102142129Y-117544260D02*
X102064720Y-117505556D01*
X102064720Y-117505556D02*
X101909901Y-117466851D01*
X101909901Y-117466851D02*
X101832491Y-117428146D01*
X101832491Y-117428146D02*
X101793786Y-117389441D01*
X101793786Y-117389441D02*
X101755082Y-117312032D01*
X101755082Y-117312032D02*
X101755082Y-117234622D01*
X101755082Y-117234622D02*
X101793786Y-117157213D01*
X101793786Y-117157213D02*
X101832491Y-117118508D01*
X101832491Y-117118508D02*
X101909901Y-117079803D01*
X101909901Y-117079803D02*
X102103424Y-117079803D01*
X102103424Y-117079803D02*
X102219539Y-117118508D01*
X102490472Y-117079803D02*
X102683996Y-117892603D01*
X102683996Y-117892603D02*
X102838815Y-117312032D01*
X102838815Y-117312032D02*
X102993634Y-117892603D01*
X102993634Y-117892603D02*
X103187158Y-117079803D01*
X103922548Y-117892603D02*
X103458091Y-117892603D01*
X103690319Y-117892603D02*
X103690319Y-117079803D01*
X103690319Y-117079803D02*
X103612910Y-117195918D01*
X103612910Y-117195918D02*
X103535500Y-117273327D01*
X103535500Y-117273327D02*
X103458091Y-117312032D01*
D11*
X124233333Y-86204819D02*
X123900000Y-85728628D01*
X123661905Y-86204819D02*
X123661905Y-85204819D01*
X123661905Y-85204819D02*
X124042857Y-85204819D01*
X124042857Y-85204819D02*
X124138095Y-85252438D01*
X124138095Y-85252438D02*
X124185714Y-85300057D01*
X124185714Y-85300057D02*
X124233333Y-85395295D01*
X124233333Y-85395295D02*
X124233333Y-85538152D01*
X124233333Y-85538152D02*
X124185714Y-85633390D01*
X124185714Y-85633390D02*
X124138095Y-85681009D01*
X124138095Y-85681009D02*
X124042857Y-85728628D01*
X124042857Y-85728628D02*
X123661905Y-85728628D01*
X125138095Y-85204819D02*
X124661905Y-85204819D01*
X124661905Y-85204819D02*
X124614286Y-85681009D01*
X124614286Y-85681009D02*
X124661905Y-85633390D01*
X124661905Y-85633390D02*
X124757143Y-85585771D01*
X124757143Y-85585771D02*
X124995238Y-85585771D01*
X124995238Y-85585771D02*
X125090476Y-85633390D01*
X125090476Y-85633390D02*
X125138095Y-85681009D01*
X125138095Y-85681009D02*
X125185714Y-85776247D01*
X125185714Y-85776247D02*
X125185714Y-86014342D01*
X125185714Y-86014342D02*
X125138095Y-86109580D01*
X125138095Y-86109580D02*
X125090476Y-86157200D01*
X125090476Y-86157200D02*
X124995238Y-86204819D01*
X124995238Y-86204819D02*
X124757143Y-86204819D01*
X124757143Y-86204819D02*
X124661905Y-86157200D01*
X124661905Y-86157200D02*
X124614286Y-86109580D01*
X124988095Y-100454819D02*
X124988095Y-101264342D01*
X124988095Y-101264342D02*
X125035714Y-101359580D01*
X125035714Y-101359580D02*
X125083333Y-101407200D01*
X125083333Y-101407200D02*
X125178571Y-101454819D01*
X125178571Y-101454819D02*
X125369047Y-101454819D01*
X125369047Y-101454819D02*
X125464285Y-101407200D01*
X125464285Y-101407200D02*
X125511904Y-101359580D01*
X125511904Y-101359580D02*
X125559523Y-101264342D01*
X125559523Y-101264342D02*
X125559523Y-100454819D01*
X125940476Y-100454819D02*
X126559523Y-100454819D01*
X126559523Y-100454819D02*
X126226190Y-100835771D01*
X126226190Y-100835771D02*
X126369047Y-100835771D01*
X126369047Y-100835771D02*
X126464285Y-100883390D01*
X126464285Y-100883390D02*
X126511904Y-100931009D01*
X126511904Y-100931009D02*
X126559523Y-101026247D01*
X126559523Y-101026247D02*
X126559523Y-101264342D01*
X126559523Y-101264342D02*
X126511904Y-101359580D01*
X126511904Y-101359580D02*
X126464285Y-101407200D01*
X126464285Y-101407200D02*
X126369047Y-101454819D01*
X126369047Y-101454819D02*
X126083333Y-101454819D01*
X126083333Y-101454819D02*
X125988095Y-101407200D01*
X125988095Y-101407200D02*
X125940476Y-101359580D01*
D12*
%TO.C,SW2*%
X119800000Y-116800000D02*
X131800000Y-116800000D01*
X131800000Y-116800000D02*
X131800000Y-103800000D01*
X131800000Y-103800000D02*
X119800000Y-103800000D01*
X119800000Y-103800000D02*
X119800000Y-116800000D01*
D13*
%TO.C,R5*%
X124627064Y-84835000D02*
X124172936Y-84835000D01*
X124627064Y-83365000D02*
X124172936Y-83365000D01*
%TO.C,J5*%
X133940000Y-80440000D02*
X135000000Y-80440000D01*
X133940000Y-81500000D02*
X133940000Y-80440000D01*
X133940000Y-82500000D02*
X133940000Y-82560000D01*
X133940000Y-82500000D02*
X136060000Y-82500000D01*
X133940000Y-82560000D02*
X136060000Y-82560000D01*
X136060000Y-82500000D02*
X136060000Y-82560000D01*
D12*
%TO.C,SW1*%
X101600000Y-116800000D02*
X113600000Y-116800000D01*
X113600000Y-116800000D02*
X113600000Y-103800000D01*
X113600000Y-103800000D02*
X101600000Y-103800000D01*
X101600000Y-103800000D02*
X101600000Y-116800000D01*
D13*
%TO.C,RV1*%
X140190000Y-92050000D02*
X140190000Y-92300000D01*
X140190000Y-97760000D02*
X140190000Y-94220000D01*
X140290000Y-91850000D02*
X140290000Y-92050000D01*
X140290000Y-91850000D02*
X141710000Y-91850000D01*
X140290000Y-92050000D02*
X140190000Y-92050000D01*
X141710000Y-92050000D02*
X141710000Y-91850000D01*
X141710000Y-92050000D02*
X145290000Y-92050000D01*
X142990000Y-99070000D02*
X141500000Y-99070000D01*
X145290000Y-91850000D02*
X146710000Y-91850000D01*
X145290000Y-92050000D02*
X145290000Y-91850000D01*
X145500000Y-99070000D02*
X144010000Y-99070000D01*
X146710000Y-91850000D02*
X146710000Y-92050000D01*
X146710000Y-92050000D02*
X146810000Y-92050000D01*
X146810000Y-92050000D02*
X146810000Y-92740000D01*
X146810000Y-93780000D02*
X146810000Y-97760000D01*
X140190000Y-97760000D02*
G75*
G03*
X141500000Y-99070000I1310000J0D01*
G01*
X145500000Y-99070000D02*
G75*
G03*
X146810000Y-97760000I0J1310000D01*
G01*
%TO.C,U3*%
X116500000Y-95000000D02*
X135000000Y-95000000D01*
X116500000Y-99200000D02*
X116500000Y-95000000D01*
X117300000Y-100000000D02*
X116500000Y-99200000D01*
X135000000Y-95000000D02*
X135000000Y-100000000D01*
X135000000Y-100000000D02*
X117300000Y-100000000D01*
D12*
%TO.C,SW3*%
X137300000Y-116800000D02*
X149300000Y-116800000D01*
X149300000Y-116800000D02*
X149300000Y-103800000D01*
X149300000Y-103800000D02*
X137300000Y-103800000D01*
X137300000Y-103800000D02*
X137300000Y-116800000D01*
D13*
%TO.C,J4*%
X108940000Y-81940000D02*
X110000000Y-81940000D01*
X108940000Y-83000000D02*
X108940000Y-81940000D01*
X108940000Y-84000000D02*
X108940000Y-84060000D01*
X108940000Y-84000000D02*
X111060000Y-84000000D01*
X108940000Y-84060000D02*
X111060000Y-84060000D01*
X111060000Y-84000000D02*
X111060000Y-84060000D01*
%TO.C,J2*%
X135940000Y-86440000D02*
X137000000Y-86440000D01*
X135940000Y-87500000D02*
X135940000Y-86440000D01*
X135940000Y-88500000D02*
X135940000Y-88560000D01*
X135940000Y-88500000D02*
X138060000Y-88500000D01*
X135940000Y-88560000D02*
X138060000Y-88560000D01*
X138060000Y-88500000D02*
X138060000Y-88560000D01*
%TO.C,J3*%
X135940000Y-90440000D02*
X137000000Y-90440000D01*
X135940000Y-91500000D02*
X135940000Y-90440000D01*
X135940000Y-92500000D02*
X135940000Y-92560000D01*
X135940000Y-92500000D02*
X138060000Y-92500000D01*
X135940000Y-92560000D02*
X138060000Y-92560000D01*
X138060000Y-92500000D02*
X138060000Y-92560000D01*
%TO.C,J1*%
X101440000Y-81060000D02*
X101440000Y-80000000D01*
X102500000Y-81060000D02*
X101440000Y-81060000D01*
X103500000Y-81060000D02*
X111560000Y-81060000D01*
X103500000Y-81060000D02*
X103500000Y-78940000D01*
X111560000Y-81060000D02*
X111560000Y-78940000D01*
X103500000Y-78940000D02*
X111560000Y-78940000D01*
%TD*%
M02*
